<?xml version="1.0" encoding="UTF-8"?>
<svg version="1.1" xmlns="http://www.w3.org/2000/svg" width="565" height="565">
<path d="M0 0 C1.1744165 0.56775146 1.1744165 0.56775146 2.37255859 1.14697266 C20.49709604 10.01594801 37.37114746 21.25335144 53 34 C53.51981445 34.41830078 54.03962891 34.83660156 54.57519531 35.26757812 C69.69748749 47.50031839 84.31457672 61.41943562 96 77 C96.92207937 78.18314798 97.84534896 79.36536892 98.76953125 80.546875 C127.53762772 117.68072644 145.7807227 160.85628267 154 207 C154.16516113 207.87446777 154.33032227 208.74893555 154.50048828 209.64990234 C159.82419402 238.74585357 159.48438712 271.96217668 154 301 C153.74259033 302.44511963 153.74259033 302.44511963 153.47998047 303.91943359 C149.33331164 326.91324956 142.38021669 348.6252041 133 370 C132.49533203 371.15604736 132.49533203 371.15604736 131.98046875 372.33544922 C115.1339515 410.53375253 87.17043761 447.53849544 54 473 C52.73754054 474.00167131 51.47588173 475.00435222 50.21484375 476.0078125 C39.93255286 484.11519011 29.23236128 491.27942157 18 498 C17.28295898 498.4340918 16.56591797 498.86818359 15.82714844 499.31542969 C-17.06360739 519.06202559 -55.04699511 530.4412226 -93 535 C-93.76505859 535.09571289 -94.53011719 535.19142578 -95.31835938 535.29003906 C-104.88617915 536.33034371 -114.51236747 536.24376091 -124.125 536.25 C-125.05963074 536.25067474 -125.99426147 536.25134949 -126.95721436 536.25204468 C-141.84335079 536.23500593 -156.31188827 535.6244181 -171 533 C-172.0007959 532.82307617 -173.0015918 532.64615234 -174.03271484 532.46386719 C-224.77406476 523.22075201 -273.62154204 501.19630396 -311.74609375 466.0703125 C-313.75303483 464.22684843 -315.79912242 462.45220907 -317.875 460.6875 C-327.17532514 452.55206407 -335.33437319 443.67628302 -343 434 C-344.49924862 432.20770453 -345.99925592 430.41604345 -347.5 428.625 C-355.58494014 418.72622111 -362.54789237 408.02047055 -369 397 C-369.62261719 395.94329102 -369.62261719 395.94329102 -370.2578125 394.86523438 C-392.52440963 356.74508052 -406.98096422 311.19918065 -407.203125 266.8046875 C-407.21364647 265.39132111 -407.21364647 265.39132111 -407.22438049 263.94940186 C-407.24179098 260.92455207 -407.24823302 257.89989806 -407.25 254.875 C-407.25101212 253.32483185 -407.25101212 253.32483185 -407.25204468 251.74334717 C-407.23631513 236.59741014 -406.80755679 221.92205378 -404 207 C-403.83371094 206.05253906 -403.66742188 205.10507813 -403.49609375 204.12890625 C-395.13514904 156.99795126 -375.01675813 113.20915222 -345 76 C-344.53190918 75.41476563 -344.06381836 74.82953125 -343.58154297 74.2265625 C-331.43410951 59.15836352 -317.49947933 44.6246095 -302 33 C-300.81685202 32.07792063 -299.63463108 31.15465104 -298.453125 30.23046875 C-274.38906824 11.58605344 -247.69431079 -2.85758707 -219 -13 C-218.2049707 -13.28423828 -217.40994141 -13.56847656 -216.59082031 -13.86132812 C-146.1273335 -38.67452034 -66.85311588 -32.49483089 0 0 Z " fill="#ffffff" transform="translate(407,29)"/>
<path d="M0 0 C1.1744165 0.56775146 1.1744165 0.56775146 2.37255859 1.14697266 C20.49709604 10.01594801 37.37114746 21.25335144 53 34 C53.51981445 34.41830078 54.03962891 34.83660156 54.57519531 35.26757812 C69.69748749 47.50031839 84.31457672 61.41943562 96 77 C96.92207937 78.18314798 97.84534896 79.36536892 98.76953125 80.546875 C127.53762772 117.68072644 145.7807227 160.85628267 154 207 C154.16516113 207.87446777 154.33032227 208.74893555 154.50048828 209.64990234 C159.82419402 238.74585357 159.48438712 271.96217668 154 301 C153.74259033 302.44511963 153.74259033 302.44511963 153.47998047 303.91943359 C149.33331164 326.91324956 142.38021669 348.6252041 133 370 C132.49533203 371.15604736 132.49533203 371.15604736 131.98046875 372.33544922 C115.1339515 410.53375253 87.17043761 447.53849544 54 473 C52.73754054 474.00167131 51.47588173 475.00435222 50.21484375 476.0078125 C39.93255286 484.11519011 29.23236128 491.27942157 18 498 C17.28295898 498.4340918 16.56591797 498.86818359 15.82714844 499.31542969 C-17.06360739 519.06202559 -55.04699511 530.4412226 -93 535 C-93.76505859 535.09571289 -94.53011719 535.19142578 -95.31835938 535.29003906 C-104.88617915 536.33034371 -114.51236747 536.24376091 -124.125 536.25 C-125.05963074 536.25067474 -125.99426147 536.25134949 -126.95721436 536.25204468 C-141.84335079 536.23500593 -156.31188827 535.6244181 -171 533 C-172.0007959 532.82307617 -173.0015918 532.64615234 -174.03271484 532.46386719 C-224.77406476 523.22075201 -273.62154204 501.19630396 -311.74609375 466.0703125 C-313.75303483 464.22684843 -315.79912242 462.45220907 -317.875 460.6875 C-327.17532514 452.55206407 -335.33437319 443.67628302 -343 434 C-344.49924862 432.20770453 -345.99925592 430.41604345 -347.5 428.625 C-355.58494014 418.72622111 -362.54789237 408.02047055 -369 397 C-369.62261719 395.94329102 -369.62261719 395.94329102 -370.2578125 394.86523438 C-392.52440963 356.74508052 -406.98096422 311.19918065 -407.203125 266.8046875 C-407.21364647 265.39132111 -407.21364647 265.39132111 -407.22438049 263.94940186 C-407.24179098 260.92455207 -407.24823302 257.89989806 -407.25 254.875 C-407.25101212 253.32483185 -407.25101212 253.32483185 -407.25204468 251.74334717 C-407.23631513 236.59741014 -406.80755679 221.92205378 -404 207 C-403.83371094 206.05253906 -403.66742188 205.10507813 -403.49609375 204.12890625 C-395.13514904 156.99795126 -375.01675813 113.20915222 -345 76 C-344.53190918 75.41476563 -344.06381836 74.82953125 -343.58154297 74.2265625 C-331.43410951 59.15836352 -317.49947933 44.6246095 -302 33 C-300.81685202 32.07792063 -299.63463108 31.15465104 -298.453125 30.23046875 C-274.38906824 11.58605344 -247.69431079 -2.85758707 -219 -13 C-218.2049707 -13.28423828 -217.40994141 -13.56847656 -216.59082031 -13.86132812 C-146.1273335 -38.67452034 -66.85311588 -32.49483089 0 0 Z M-312 87 C-315.17291523 90.55064324 -318.12841561 94.20277668 -321 98 C-321.42055664 98.54946289 -321.84111328 99.09892578 -322.27441406 99.66503906 C-344.74384421 129.11275377 -360.75064141 161.84213896 -369 198 C-369.29946533 199.28535645 -369.29946533 199.28535645 -369.60498047 200.59667969 C-376.16499261 229.17286758 -376.88260142 258.97632224 -373 288 C-372.8870459 288.87978516 -372.7740918 289.75957031 -372.65771484 290.66601562 C-368.78319984 319.60817589 -358.61208192 347.28198782 -345 373 C-344.64679688 373.66918457 -344.29359375 374.33836914 -343.9296875 375.02783203 C-336.63785688 388.71640794 -327.92981505 401.08066923 -318 413 C-317.55930176 413.53093262 -317.11860352 414.06186523 -316.66455078 414.60888672 C-307.49479355 425.61694273 -297.98644995 435.87659418 -286.734375 444.82421875 C-284.93169855 446.25863415 -283.14956347 447.71930634 -281.390625 449.20703125 C-261.44523071 466.05439832 -238.1392466 478.34249791 -214 488 C-212.87996582 488.45197754 -212.87996582 488.45197754 -211.73730469 488.91308594 C-165.26892559 507.35705688 -109.9787794 510.00197031 -62 496 C-60.43240226 495.56470569 -58.86468691 495.12983479 -57.296875 494.6953125 C-39.39701715 489.63103072 -22.41420457 482.7353851 -6 474 C-5.03465332 473.49629883 -5.03465332 473.49629883 -4.04980469 472.98242188 C12.3967787 464.3624821 27.14116981 453.30841311 41 441 C41.99257813 440.12988281 42.98515625 439.25976562 44.0078125 438.36328125 C57.28247342 426.57896437 68.60907606 413.36853961 79 399 C79.4444043 398.38576172 79.88880859 397.77152344 80.34667969 397.13867188 C117.42163374 345.21663784 132.87859462 277.52518734 122.46191406 214.60888672 C121.36389346 208.40727565 120.06847443 202.27879692 118.53710938 196.16992188 C117.99204033 193.96784295 117.48687221 191.75901788 116.984375 189.546875 C107.14872831 147.76211905 83.56153051 109.70070317 54 79 C53.24734863 78.21447754 53.24734863 78.21447754 52.47949219 77.41308594 C45.72612391 70.39913753 38.7338202 63.93691646 31 58 C30.34177246 57.48711426 29.68354492 56.97422852 29.00537109 56.44580078 C16.95282921 47.09678408 4.4803065 39.12934845 -9 32 C-9.8053418 31.5673584 -10.61068359 31.1347168 -11.44042969 30.68896484 C-35.02216999 18.17708755 -61.63328207 9.90203154 -88 6 C-88.83160645 5.87302734 -89.66321289 5.74605469 -90.52001953 5.61523438 C-173.74196559 -6.40067879 -255.15803588 26.54902228 -312 87 Z " fill="#E60006" transform="translate(407,29)"/>
<path d="M0 0 C0.86872295 -0.00382555 1.7374459 -0.00765109 2.63249379 -0.01159257 C5.53665878 -0.02189239 8.44062494 -0.01793621 11.34480286 -0.01396179 C13.42946556 -0.01830979 15.51412667 -0.02349323 17.5987854 -0.02944946 C23.25549394 -0.04283746 28.91213566 -0.04341862 34.56885695 -0.04088616 C39.28851908 -0.03981688 44.00816767 -0.04469844 48.72782689 -0.04949158 C59.85667293 -0.06058488 70.98548521 -0.06102437 82.11433411 -0.05497742 C93.60697655 -0.04892908 105.09949684 -0.06127088 116.59211844 -0.08254749 C126.45378374 -0.10013535 136.31541005 -0.10616953 146.17709047 -0.10290974 C152.06975618 -0.10109313 157.96233464 -0.10377117 163.85498619 -0.11762428 C169.39127286 -0.13015317 174.9273681 -0.12830557 180.46365166 -0.11521339 C182.49905714 -0.11283771 184.5344759 -0.11561753 186.56986618 -0.12383652 C189.34066692 -0.1342215 192.11081528 -0.12627035 194.8815918 -0.11352539 C195.69364159 -0.12089968 196.50569139 -0.12827396 197.34234875 -0.13587171 C202.74963115 -0.08326602 202.74963115 -0.08326602 205.2491045 1.63381672 C206.68063664 3.9599189 206.63885299 5.7607739 206.64875793 8.47944641 C206.65262512 9.4939386 206.65649231 10.50843079 206.66047668 11.55366516 C206.64307434 13.14114563 206.64307434 13.14114563 206.62532043 14.76069641 C206.636922 15.81901672 206.64852356 16.87733704 206.66047668 17.96772766 C206.6566095 18.98221985 206.65274231 19.99671204 206.64875793 21.04194641 C206.64537415 21.97071594 206.64199036 22.89948547 206.63850403 23.85639954 C206.18174975 26.68540339 205.53729246 27.58226019 203.25032043 29.26069641 C200.49103574 29.67458912 198.96623342 29.72833553 196.60578918 28.18647766 C194.52262701 25.2268265 194.96488567 22.63149303 195.06282043 19.07319641 C195.08989075 17.80089172 195.11696106 16.52858704 195.14485168 15.21772766 C195.17965637 14.24190735 195.21446106 13.26608704 195.25032043 12.26069641 C169.03361643 12.32121707 142.81701013 12.39870727 116.60041714 12.49641132 C104.42765608 12.54138095 92.25492435 12.58079298 80.08210754 12.60713196 C69.47254855 12.63010252 58.8630823 12.66349012 48.25359684 12.70939797 C42.63571963 12.73334277 37.01793433 12.75206336 31.40000725 12.75831032 C26.11161933 12.7643554 20.82346665 12.78433472 15.53516579 12.81497192 C13.59499113 12.82376133 11.65478574 12.82747286 9.71459198 12.82570457 C7.06305747 12.82405107 4.41223939 12.84075764 1.76080322 12.86196899 C0.61243072 12.85469763 0.61243072 12.85469763 -0.55914122 12.84727937 C-5.65673754 12.91445712 -9.21695542 13.88238874 -13.74967957 16.26069641 C-18.39545938 21.27324832 -18.89962336 24.57507837 -18.90789795 31.20787048 C-18.91283593 32.03854046 -18.9177739 32.86921044 -18.92286152 33.72505224 C-18.93828866 36.52420367 -18.94661121 39.32333208 -18.95500183 42.12251282 C-18.96457626 44.12278447 -18.97458608 46.12305408 -18.98500061 48.12332153 C-19.01210291 53.56723134 -19.03308359 59.01114986 -19.0530026 64.45509005 C-19.07482937 70.13928101 -19.10223421 75.82344495 -19.12905884 81.50761414 C-19.17903056 92.27752842 -19.22395274 103.04745767 -19.2670812 113.81740129 C-19.31641535 126.07599891 -19.37134762 138.33456942 -19.42676079 150.59314084 C-19.5406496 175.81563408 -19.64747357 201.03815332 -19.74967957 226.26069641 C-19.23018738 225.98354797 -18.71069519 225.70639954 -18.17546082 225.42085266 C-11.4114821 221.90758461 -6.10430174 221.11165135 1.52029419 221.14044189 C2.34944389 221.13958747 3.17859359 221.13873304 4.03286904 221.13785273 C6.80890678 221.13620669 9.58488398 221.14170497 12.36091614 221.14717102 C14.35177611 221.14745311 16.34263618 221.14729474 18.33349609 221.14672852 C23.73799543 221.14644138 29.14247261 221.15232463 34.54696679 221.15930247 C40.19508772 221.1655499 45.84320915 221.16614091 51.49133301 221.16732788 C62.18679352 221.17043709 72.88224382 221.17864497 83.57769984 221.18867737 C95.75412447 221.19985123 107.93054958 221.20535217 120.10697806 221.21037281 C145.15476451 221.2208279 170.2025419 221.23841943 195.25032043 221.26069641 C195.21551575 220.5014386 195.18071106 219.74218079 195.14485168 218.95991516 C195.11778137 217.96604797 195.09071106 216.97218079 195.06282043 215.94819641 C195.02801575 214.9620636 194.99321106 213.97593079 194.95735168 212.95991516 C195.25032043 210.26069641 195.25032043 210.26069641 196.53547668 208.39350891 C198.25032043 207.26069641 198.25032043 207.26069641 201.87532043 207.44819641 C202.98907043 207.71632141 204.10282043 207.98444641 205.25032043 208.26069641 C206.58911243 210.9382804 206.39965443 213.02207639 206.42732239 216.02046204 C206.44657524 217.83375 206.44657524 217.83375 206.46621704 219.68367004 C206.47360397 220.99815125 206.48099091 222.31263245 206.48860168 223.66694641 C206.49267721 224.33664963 206.49675274 225.00635284 206.50095177 225.6963501 C206.52182741 229.24806917 206.53611682 232.79974955 206.54548645 236.35151672 C206.55649262 239.99849648 206.5908193 243.6448562 206.63065815 247.29161835 C206.65698433 250.11259487 206.6651928 252.93342808 206.66876793 255.7545166 C206.67593324 257.74515012 206.70231402 259.73568508 206.72915649 261.72615051 C206.70721118 270.98322125 205.1782078 277.8270384 200.06282043 285.57319641 C194.29218853 291.08735578 187.70044956 294.38266505 179.68782043 294.51069641 C178.71715637 294.53647766 177.74649231 294.56225891 176.74641418 294.58882141 C175.51084778 294.42639954 175.51084778 294.42639954 174.25032043 294.26069641 C172.09529513 291.02815845 171.78175909 290.00918718 172.25032043 286.26069641 C174.42583543 283.47821955 176.19509562 282.8226445 179.62532043 282.26069641 C184.71160077 281.26160563 188.99260663 279.44918559 192.25032043 275.26069641 C194.29755422 270.29262886 194.58596475 265.86510912 194.66438293 260.58100891 C194.68374908 259.76824493 194.70311523 258.95548096 194.72306824 258.11808777 C194.78249926 255.5407283 194.82910225 252.96332327 194.87532043 250.38569641 C194.91353386 248.63046939 194.95258753 246.87526044 194.99250793 245.12007141 C195.08817043 240.83376117 195.17233493 236.54736322 195.25032043 232.26069641 C168.9204792 232.27450386 142.59081624 232.31673813 116.26107788 232.39278698 C104.03562933 232.42743574 91.81029353 232.45279237 79.58479309 232.45625305 C68.92867537 232.45929308 58.27275845 232.47978905 47.61671829 232.52122098 C41.97470834 232.54254886 36.33298385 232.55515253 30.69093323 232.5468502 C25.37861902 232.53930895 20.06688316 232.55513653 14.75467491 232.58875656 C12.80685823 232.59698883 10.85898403 232.59674098 8.91117287 232.58729362 C6.24644406 232.57565038 3.58360404 232.59482143 0.91902161 232.62145996 C0.15246183 232.6107867 -0.61409794 232.60011344 -1.4038868 232.58911675 C-7.24057382 232.69759651 -11.20070058 234.63161865 -15.74967957 238.26069641 C-18.80599782 241.99363592 -19.13359354 244.90451113 -19.14811707 249.66304016 C-19.15198425 250.88313782 -19.15585144 252.10323547 -19.15983582 253.36030579 C-19.14823425 254.62680969 -19.13663269 255.8933136 -19.12467957 257.19819641 C-19.13628113 258.46083313 -19.14788269 259.72346985 -19.15983582 261.02436829 C-19.15596863 262.245755 -19.15210144 263.46714172 -19.14811707 264.72554016 C-19.14473328 265.83534241 -19.14134949 266.94514465 -19.13786316 268.08857727 C-18.53461278 273.01815722 -16.86052689 276.25822444 -13.18717957 279.57319641 C-8.86278903 282.56700524 -5.45032898 282.40581491 -0.3243866 282.40254211 C0.54730164 282.40601654 1.41898987 282.40949097 2.3170929 282.41307068 C4.21377293 282.42043313 6.11046162 282.4257759 8.00715256 282.42936134 C11.00772384 282.43651393 14.00813037 282.45217098 17.00865173 282.47070312 C25.54117079 282.52323279 34.07360015 282.57116756 42.60627747 282.58662415 C47.82181305 282.5966926 53.03693539 282.62598817 58.25230789 282.66794395 C60.24180606 282.68027516 62.23136254 282.68537136 64.22089767 282.68314552 C67.00312822 282.68079866 69.78416845 282.70291172 72.5662384 282.73066711 C73.39028168 282.7240657 74.21432495 282.71746429 75.06333923 282.71066284 C78.671137 282.76985723 80.83214772 282.95891942 83.79698181 285.09851074 C85.25032043 287.26069641 85.25032043 287.26069641 85.18782043 290.38569641 C84.25032043 293.26069641 84.25032043 293.26069641 81.25032043 295.26069641 C78.37385128 295.47109094 75.59286359 295.56477261 72.71492004 295.5670929 C71.84296997 295.57541641 70.9710199 295.58373993 70.07264709 295.59231567 C67.18260759 295.61645789 64.29279393 295.62519541 61.40266418 295.63179016 C59.390665 295.6407573 57.37866651 295.64987916 55.3666687 295.65914917 C51.14240398 295.67565599 46.91821863 295.68334166 42.69392395 295.68623352 C37.2992863 295.69160162 31.90540306 295.72920937 26.51097775 295.77497768 C22.35090469 295.80483595 18.19101078 295.81195907 14.03083992 295.81295967 C12.04344308 295.81714897 10.05604507 295.82953107 8.0687542 295.85047722 C-4.56521514 295.9729738 -13.73299723 295.6622913 -23.62467957 287.01069641 C-28.53692862 281.72771158 -31.86657346 274.28368391 -31.88390064 267.04358482 C-31.88835849 266.17927987 -31.89281633 265.31497491 -31.89740926 264.42447889 C-31.8972249 263.47440131 -31.89704054 262.52432374 -31.89685059 261.54545593 C-31.90052727 260.53652176 -31.90420396 259.5275876 -31.90799206 258.48807967 C-31.91904705 255.09115386 -31.92287584 251.69425863 -31.92668152 248.2973175 C-31.93294483 245.86815798 -31.93959151 243.43899942 -31.94659424 241.00984192 C-31.96583514 233.70805893 -31.97642493 226.40627846 -31.98532203 219.10447782 C-31.98970615 215.66477553 -31.99507269 212.22507477 -32.0003109 208.78537369 C-32.01732377 197.34860491 -32.03181706 185.91183709 -32.03905964 174.4750576 C-32.0409695 171.50728224 -32.04288983 168.53950689 -32.04484558 165.57173157 C-32.04532932 164.8341164 -32.04581306 164.09650124 -32.04631146 163.3365341 C-32.05460845 151.39261601 -32.07993947 139.44879819 -32.11242626 127.50492387 C-32.14551791 115.23849881 -32.16351035 102.97212466 -32.16670388 90.70565474 C-32.16886718 83.82009326 -32.17758912 76.93467793 -32.20316505 70.04916 C-32.22717671 63.56983669 -32.23068447 57.09070485 -32.22040367 50.61134338 C-32.21990785 48.23497773 -32.22624182 45.85859921 -32.23995972 43.4822731 C-32.25766076 40.23381353 -32.25058039 36.98629918 -32.23742676 33.73783875 C-32.248396 32.8011455 -32.25936525 31.86445225 -32.2706669 30.89937437 C-32.17972533 21.57351912 -28.84976146 14.74769789 -22.54264832 7.98335266 C-15.78270864 1.48850866 -9.01289839 -0.04229507 0 0 Z " fill="#E92718" transform="translate(192.7496795654297,124.73930358886719)"/>
<path d="M0 0 C1.11503906 -0.00257813 2.23007812 -0.00515625 3.37890625 -0.0078125 C5.95864725 0.1042069 7.97351434 0.45961991 10.4375 1.125 C14.27717767 1.37557397 17.75199333 1.35350222 21.4375 0.125 C24.34798781 -0.05060807 27.21299369 -0.15218869 30.125 -0.1875 C30.90294922 -0.21650391 31.68089844 -0.24550781 32.48242188 -0.27539062 C39.37293733 -0.35010013 44.36998774 1.54068878 49.64453125 5.984375 C50.17433594 6.60828125 50.70414062 7.2321875 51.25 7.875 C51.79269531 8.48859375 52.33539063 9.1021875 52.89453125 9.734375 C57.35226403 16.64103946 57.89514314 23.04859246 57.87109375 31.0546875 C57.8763356 32.08506134 57.88157745 33.11543518 57.88697815 34.17703247 C57.89337392 36.34701643 57.89209322 38.51703517 57.88354492 40.68701172 C57.87504286 43.98338426 57.90381952 47.27801729 57.93554688 50.57421875 C57.93715949 52.69270782 57.93658021 54.81119992 57.93359375 56.9296875 C57.94482773 57.90291962 57.95606171 58.87615173 57.96763611 59.87887573 C57.88809732 67.80158753 55.8742023 74.20887131 51.6875 80.9375 C45.26635148 87.18028329 37.93511299 90.41784578 28.9375 90.375 C27.31328125 90.38273437 27.31328125 90.38273437 25.65625 90.390625 C22.29856209 90.11353425 19.60734345 89.22157049 16.4375 88.125 C13.68539463 88.40021054 11.20739529 88.90981187 8.55078125 89.65234375 C1.44897775 91.24073233 -6.13351204 90.56325332 -12.5625 87.125 C-19.49953528 82.17583007 -23.91671231 77.24641247 -26.5625 69.125 C-27.08898037 65.42525885 -27.1015866 61.79484203 -27.05859375 58.0625 C-27.06004898 57.03116943 -27.06150421 55.99983887 -27.06300354 54.93725586 C-27.06135254 52.76901406 -27.04988163 50.60075957 -27.02905273 48.43261719 C-27.00008128 45.13425357 -27.00846552 41.83749905 -27.02148438 38.5390625 C-27.01524614 36.42186727 -27.00685454 34.30467707 -26.99609375 32.1875 C-26.99902939 31.21224365 -27.00196503 30.2369873 -27.00498962 29.23217773 C-26.87608773 19.76825085 -24.88888758 12.71806292 -18.328125 5.78515625 C-12.77004513 0.55908557 -7.40421628 -0.01715925 0 0 Z " fill="#ffffff" transform="translate(358.5625,221.875)"/>
<path d="M0 0 C0.99804007 -0.00679667 0.99804007 -0.00679667 2.01624256 -0.01373065 C4.25024285 -0.02641136 6.4840005 -0.02475196 8.71803284 -0.02310181 C10.31787938 -0.02908473 11.91772303 -0.03588973 13.51756287 -0.04345703 C17.86670404 -0.06114718 22.21576655 -0.06581364 26.56494021 -0.0670886 C30.19330144 -0.06898612 33.82164428 -0.07634186 37.44999844 -0.08343279 C46.00859097 -0.09972541 54.56714142 -0.10460091 63.12574768 -0.10317993 C71.9605157 -0.1019779 80.79503966 -0.12309 89.6297459 -0.15466726 C97.21028497 -0.18079837 104.79074416 -0.19154858 112.37132794 -0.19026911 C116.90093342 -0.18975859 121.43032203 -0.19549133 125.95988274 -0.21662521 C130.21907746 -0.23595475 134.47784723 -0.23616861 138.73705673 -0.22159195 C140.30117855 -0.21949623 141.8653266 -0.22425005 143.42940331 -0.23631287 C145.56313915 -0.25170472 147.6953985 -0.24249985 149.82910156 -0.22705078 C151.02353599 -0.22814032 152.21797041 -0.22922985 153.44859982 -0.2303524 C157.09299158 0.36846987 158.27106796 1.35894644 160.4780426 4.26742554 C160.9780426 6.82992554 160.9780426 6.82992554 160.4780426 9.26742554 C158.64445768 11.38310044 157.15374214 12.19117472 154.3686676 12.50546265 C151.81542255 12.56300272 149.28083048 12.52845488 146.7280426 12.45492554 C145.39579651 12.4346228 145.39579651 12.4346228 144.03663635 12.41390991 C141.84981683 12.37863863 139.66424294 12.32935306 137.4780426 12.26742554 C137.48914566 13.03750443 137.50024872 13.80758331 137.51168823 14.60099792 C137.61183589 21.85506582 137.68797879 29.10879903 137.73710346 36.36337757 C137.76320826 40.09316791 137.79862003 43.82238754 137.85523987 47.55184937 C137.9095318 51.15045979 137.93945649 54.74852105 137.95242882 58.34750938 C137.96167411 59.72112362 137.97972863 61.09470747 138.00669289 62.46808815 C138.0429336 64.39024209 138.04508454 66.31294765 138.04566956 68.23544312 C138.05677261 69.33020462 138.06787567 70.42496613 138.07931519 71.55290222 C137.4780426 74.26742554 137.4780426 74.26742554 135.1239624 76.18080139 C132.4780426 77.26742554 132.4780426 77.26742554 129.57569885 76.68539429 C125.0727514 74.62414596 120.86520449 72.13808959 116.59913635 69.63070679 C113.06257339 68.08595025 112.03243641 67.92015146 108.4780426 69.26742554 C105.46694049 70.91586454 102.55890524 72.65438639 99.6499176 74.47250366 C96.15432168 76.57366077 93.58459431 78.05879227 89.4780426 77.26742554 C87.85870361 76.11732483 87.85870361 76.11732483 86.4780426 74.26742554 C86.11727905 71.55290222 86.11727905 71.55290222 86.13746643 68.23544312 C86.13769302 66.99438309 86.13791962 65.75332306 86.13815308 64.47465515 C86.15347292 63.1204187 86.16912091 61.76618593 86.18507385 60.41195679 C86.19067009 59.02619383 86.19494006 57.64042494 86.19793701 56.25465393 C86.20938377 52.6097979 86.23884902 48.96530131 86.27204895 45.32058716 C86.30275375 41.60044212 86.31644319 37.88023893 86.33155823 34.16000366 C86.36371929 26.86231387 86.41491309 19.56492009 86.4780426 12.26742554 C85.32181396 12.27630798 84.16558533 12.28519043 82.97431946 12.29434204 C72.08567309 12.37537777 61.19708779 12.43536691 50.30820847 12.47467422 C44.70990699 12.49556181 39.11184866 12.52390118 33.51368713 12.56918335 C28.11259313 12.6125988 22.71173322 12.63655382 17.31047821 12.64693451 C15.24834253 12.65433358 13.18621986 12.66878201 11.12418365 12.69034576 C8.23892384 12.71932232 5.35463511 12.72338392 2.46925354 12.7215271 C1.18639717 12.74309875 1.18639717 12.74309875 -0.12237549 12.7651062 C-3.95938945 12.73833206 -5.89926741 12.71228028 -9.08781433 10.43435669 C-10.5219574 8.26742554 -10.5219574 8.26742554 -10.4594574 5.14242554 C-8.67133341 -0.34115469 -5.10315393 0.01432442 0 0 Z " fill="#E92515" transform="translate(205.52195739746094,365.7325744628906)"/>
<path d="M0 0 C3.25 1.0625 3.25 1.0625 5.25 3.0625 C5.74842448 6.31047493 5.49104536 7.69465162 3.67578125 10.46484375 C2.97839844 11.30144531 2.28101563 12.13804687 1.5625 13 C-5.15836254 21.84198582 -8.46905382 31.97789627 -8.75 43.0625 C-7.76 42.7325 -6.77 42.4025 -5.75 42.0625 C7.45856196 41.09918272 17.7860043 43.6647894 27.875 52.3125 C36.8380032 62.69071423 39.71593534 72.78381022 39.71875 86.3984375 C39.73017029 87.96025253 39.73017029 87.96025253 39.74182129 89.55361938 C39.75255051 91.74014915 39.75550492 93.92672985 39.75097656 96.11328125 C39.75000433 99.42276056 39.79171072 102.72991662 39.8359375 106.0390625 C39.92497702 121.52420953 38.91293097 133.39388922 27.578125 144.97265625 C17.35204777 154.15210477 5.72401761 156.78864466 -7.75 156.0625 C-10.16796875 155.54296875 -10.16796875 155.54296875 -12.1875 154.9375 C-16.37148683 153.90985411 -17.76010392 154.69961471 -21.75 156.0625 C-32.29043466 157.25366607 -43.24519717 155.55744476 -52.0625 149.375 C-60.99917308 141.85534696 -67.18687644 133.80210808 -68.75 122.0625 C-68.92643832 118.42380462 -68.96154357 114.78707104 -68.98828125 111.14453125 C-69.00038887 109.56498909 -69.00038887 109.56498909 -69.01274109 107.95353699 C-69.02653947 105.72872544 -69.03728051 103.5038931 -69.04516602 101.27905273 C-69.05667675 99.01857235 -69.077114 96.75811894 -69.10668945 94.49780273 C-69.14962082 91.21319305 -69.16557056 87.92938761 -69.17578125 84.64453125 C-69.19328934 83.64831253 -69.21079742 82.65209381 -69.22883606 81.62568665 C-69.1963965 70.97183097 -65.69148529 61.21989956 -58.75 53.0625 C-51.22605644 45.88753342 -43.93628838 42.69021704 -33.58203125 42.79882812 C-32.64746094 42.82396484 -31.71289062 42.84910156 -30.75 42.875 C-29.78449219 42.88853516 -28.81898438 42.90207031 -27.82421875 42.91601562 C-25.46554575 42.95104542 -23.10808229 43.00015916 -20.75 43.0625 C-20.71132813 41.88107422 -20.71132813 41.88107422 -20.671875 40.67578125 C-20.01748662 28.10854995 -16.99773086 17.41898325 -9.75 7.0625 C-9.26402344 6.33417969 -8.77804687 5.60585937 -8.27734375 4.85546875 C-4.74450824 0.07907514 -4.74450824 0.07907514 0 0 Z M-51.75 63.0625 C-55.62507272 68.30721049 -56.84103546 73.4521923 -56.94287109 79.87768555 C-56.95893402 80.80602707 -56.97499695 81.73436859 -56.99154663 82.69084167 C-57.03644874 86.92661435 -57.07706093 91.16223782 -57.10009766 95.39819336 C-57.1166335 97.62388584 -57.14389192 99.84952573 -57.18212891 102.07495117 C-57.23723879 105.30415049 -57.25882424 108.53211084 -57.2734375 111.76171875 C-57.30744156 113.23568367 -57.30744156 113.23568367 -57.34213257 114.73942566 C-57.31723172 122.98807224 -54.8314749 129.28938019 -49.609375 135.68359375 C-42.21359875 142.05217885 -35.82174691 144.57664575 -26.03125 144.3046875 C-23.55586696 144.12428968 -23.55586696 144.12428968 -20.5625 143 C-16.04399389 141.4938313 -12.16828805 142.58973732 -7.75 144.0625 C2.45549531 144.93562092 10.02327179 143.51411297 18.5625 137.875 C24.17731228 131.99903366 27.3289498 125.4794876 27.42700195 117.3449707 C27.43983719 116.41332596 27.45267242 115.48168121 27.46589661 114.52180481 C27.47328354 113.52074203 27.48067047 112.51967926 27.48828125 111.48828125 C27.50038887 109.93067329 27.50038887 109.93067329 27.51274109 108.34159851 C27.52656444 106.14352072 27.5372944 103.94542162 27.54516602 101.74731445 C27.55667632 99.50799232 27.57711291 97.26869741 27.60668945 95.02954102 C27.64952251 91.78643222 27.66555824 88.5441384 27.67578125 85.30078125 C27.70204338 83.81436882 27.70204338 83.81436882 27.72883606 82.29792786 C27.70082416 73.22665232 24.92144483 66.64362998 19.203125 59.66796875 C13.18607581 54.72195432 7.59198484 53.46462153 -0.0625 53.75 C-0.85978516 53.75966797 -1.65707031 53.76933594 -2.47851562 53.77929688 C-5.79492334 53.84344942 -8.58734901 54.008283 -11.75 55.0625 C-18.89933542 55.28946303 -18.89933542 55.28946303 -21.609375 54.56640625 C-33.29425766 51.81576781 -43.66324928 54.36045303 -51.75 63.0625 Z " fill="#E92717" transform="translate(388.75,167.9375)"/>
<path d="M0 0 C1.09362854 -0.00845947 2.18725708 -0.01691895 3.31402588 -0.02563477 C4.51412292 -0.01956207 5.71421997 -0.01348938 6.95068359 -0.00723267 C8.84605865 -0.0151181 8.84605865 -0.0151181 10.77972412 -0.02316284 C14.24666708 -0.03685109 17.71334252 -0.03153175 21.18029022 -0.02202559 C24.8063988 -0.01443673 28.43248429 -0.02147244 32.05859375 -0.02618408 C38.14831663 -0.03164391 44.2379304 -0.02444413 50.32763672 -0.01016235 C57.3708222 0.00616468 64.41374717 0.00087633 71.45692635 -0.01564157 C77.50116775 -0.02925004 83.54533067 -0.03117926 89.58958244 -0.02332556 C93.20081732 -0.01864549 96.8119297 -0.01803326 100.42315674 -0.02793503 C104.44811463 -0.03820008 108.47262253 -0.02397784 112.49755859 -0.00723267 C113.69765564 -0.01330536 114.89775269 -0.01937805 116.13421631 -0.02563477 C117.22784485 -0.01717529 118.32147339 -0.00871582 119.44824219 0 C120.87624649 0.00169662 120.87624649 0.00169662 122.33309937 0.00342751 C124.72412109 0.38095093 124.72412109 0.38095093 126.56948853 1.67819786 C127.72412109 3.38095093 127.72412109 3.38095093 127.47412109 7.00595093 C126.72412109 10.38095093 126.72412109 10.38095093 125.72412109 11.38095093 C124.14298496 11.48904209 122.55706048 11.52779136 120.97227478 11.53916931 C119.94437332 11.54895813 118.91647186 11.55874695 117.85742188 11.5688324 C116.72022705 11.57458786 115.58303223 11.58034332 114.41137695 11.58627319 C113.22129532 11.59617279 112.03121368 11.60607239 110.80506897 11.61627197 C107.532518 11.64252196 104.25997244 11.66435824 100.98737788 11.68427396 C97.57070548 11.70609625 94.15407812 11.73350326 90.73744202 11.7603302 C84.2634611 11.81030805 77.78945525 11.85522791 71.31542546 11.89835256 C63.9467099 11.94768152 56.57803953 12.0026157 49.20936763 12.05803216 C34.04765935 12.17193035 18.88590848 12.27801217 3.72412109 12.38095093 C3.39412109 27.23095093 3.06412109 42.08095093 2.72412109 57.38095093 C11.67666016 57.34614624 11.67666016 57.34614624 20.81005859 57.31063843 C24.58350042 57.30042345 28.35692528 57.29079582 32.13037109 57.28329468 C38.12422206 57.27132335 44.11801212 57.25713759 50.11181641 57.23007202 C54.94230442 57.20839518 59.77272715 57.19639323 64.60326004 57.19119644 C66.44931695 57.18749138 68.29537015 57.18025668 70.14139938 57.16949081 C72.72032234 57.15504436 75.29897301 57.15297009 77.87792969 57.15390015 C79.03131081 57.14311432 79.03131081 57.14311432 80.20799255 57.1321106 C85.49601677 57.15284661 85.49601677 57.15284661 87.72412109 59.38095093 C87.97412109 62.88095093 87.97412109 62.88095093 87.72412109 66.38095093 C85.10227155 69.00280047 83.2293654 68.63043401 79.65905762 68.66311646 C78.80912231 68.66063904 77.95918701 68.65816162 77.08349609 68.65560913 C75.74188416 68.66327553 75.74188416 68.66327553 74.37316895 68.6710968 C71.40675224 68.68503542 68.44056672 68.68403299 65.47412109 68.68173218 C63.41910719 68.68561645 61.36409408 68.68995056 59.30908203 68.69471741 C54.99818318 68.70218859 50.68736621 68.70188162 46.37646484 68.69662476 C40.84107707 68.69082566 35.30602341 68.70776748 29.77069092 68.73096943 C25.5260216 68.74567109 21.28143343 68.74658341 17.03674316 68.7434597 C14.9953139 68.74397461 12.95388029 68.74924381 10.91247559 68.75927162 C8.06300873 68.77155123 5.21420168 68.76489588 2.36474609 68.75326538 C1.08984314 68.76473099 1.08984314 68.76473099 -0.21081543 68.77642822 C-2.55615234 68.75517273 -2.55615234 68.75517273 -6.27587891 68.38095093 C-8.59873726 64.8966634 -8.53307071 63.51246237 -8.55053711 59.39657593 C-8.56006912 58.16519897 -8.56960114 56.93382202 -8.579422 55.66513062 C-8.57916059 54.32040376 -8.57822367 52.9756769 -8.57666016 51.63095093 C-8.58054713 50.25236888 -8.5848818 48.87378803 -8.58964539 47.49520874 C-8.59710548 44.60682287 -8.59681759 41.71855925 -8.59155273 38.83016968 C-8.58575361 35.12768478 -8.60270016 31.4256994 -8.62589741 27.72329712 C-8.6406233 24.87685213 -8.64150813 22.03052784 -8.63838768 19.18405151 C-8.63890132 17.81888844 -8.64414713 16.45371869 -8.6541996 15.08859253 C-8.66652509 13.18087576 -8.65784342 11.27305811 -8.64819336 9.36532593 C-8.6491375 7.73675659 -8.6491375 7.73675659 -8.65010071 6.07528687 C-8.27587891 3.38095093 -8.27587891 3.38095093 -7.08223248 1.73636436 C-4.63204927 -0.10215235 -3.04883941 0.00362233 0 0 Z " fill="#E92212" transform="translate(212.27587890625,164.61904907226563)"/>
<path d="M0 0 C9.24 0 18.48 0 28 0 C28 15.84 28 31.68 28 48 C23 46 23 46 20.0625 44.375 C16.51880705 42.78395419 14.84044284 42.39757759 11 43 C8.56499082 44.18660346 6.26304063 45.49201594 3.953125 46.90625 C2 48 2 48 0 48 C0 32.16 0 16.32 0 0 Z " fill="#ffffff" transform="translate(303,378)"/>
<path d="M0 0 C0.70470932 -0.00700928 1.40941864 -0.01401855 2.13548279 -0.02124023 C4.45466026 -0.03878192 6.77260796 -0.02721235 9.09179688 -0.01367188 C10.70935296 -0.01636792 12.32690746 -0.02025128 13.94445801 -0.02526855 C17.33047961 -0.03115837 20.71607842 -0.0226177 24.10205078 -0.00390625 C28.43667505 0.01888347 32.77030861 0.00575755 37.10489655 -0.01819611 C40.4438622 -0.03266833 43.78259397 -0.02804167 47.12156677 -0.01768494 C48.71951923 -0.01502156 50.31749309 -0.01827372 51.91542053 -0.02760315 C54.15121489 -0.03779284 56.38541759 -0.02223679 58.62109375 0 C59.89174683 0.00318237 61.1623999 0.00636475 62.47155762 0.00964355 C66.34459605 0.59881889 68.0180307 1.83809909 70.81054688 4.51757812 C70.06054688 10.26757812 70.06054688 10.26757812 67.81054688 12.51757812 C65.35765053 12.72099892 63.01715231 12.80082348 60.56274414 12.79223633 C59.81624603 12.79734726 59.06974792 12.80245819 58.30062866 12.807724 C55.82598923 12.82165633 53.35162718 12.8206605 50.87695312 12.81835938 C49.16063838 12.8222444 47.44432461 12.82657867 45.72801208 12.8313446 C42.12748094 12.83881471 38.52704783 12.83850991 34.92651367 12.83325195 C30.30817889 12.82745718 25.69024512 12.84438452 21.07197666 12.86759663 C17.52639919 12.88231558 13.98091869 12.88320817 10.43531609 12.8800869 C8.73243351 12.88060107 7.02954563 12.88585672 5.32669258 12.89589882 C2.94677672 12.90821019 0.56764704 12.90150397 -1.81225586 12.88989258 C-2.87137428 12.90135818 -2.87137428 12.90135818 -3.95188904 12.91305542 C-6.82831435 12.88197328 -8.73481752 12.84054616 -11.11927795 11.14665222 C-12.71173454 8.72253527 -12.7428384 7.35367767 -12.18945312 4.51757812 C-8.28011017 0.52204854 -5.49607787 0.01376502 0 0 Z " fill="#E92B1C" transform="translate(207.189453125,387.482421875)"/>
</svg>
