<?xml version="1.0" encoding="UTF-8"?>
<svg version="1.1" xmlns="http://www.w3.org/2000/svg" width="594" height="594">
<path d="M0 0 C1.4355423 -0.00101212 1.4355423 -0.00101212 2.90008545 -0.00204468 C18.28113284 0.0151457 33.24250055 0.67225423 48.4375 3.25 C49.4476416 3.41628906 50.4577832 3.58257812 51.49853516 3.75390625 C76.0713728 7.91422364 99.67824844 15.13233427 122.4375 25.25 C123.24058594 25.60143066 124.04367187 25.95286133 124.87109375 26.31494141 C143.52068549 34.53347044 161.24078837 44.87139577 177.4375 57.25 C178.01935059 57.69053711 178.60120117 58.13107422 179.20068359 58.58496094 C186.43131264 64.07860145 193.32736912 69.80035364 199.984375 75.98046875 C202.13992371 77.97469454 204.33236135 79.90283403 206.5625 81.8125 C213.75605106 88.07927454 220.30821782 94.94877095 226.4375 102.25 C226.86981934 102.75257324 227.30213867 103.25514648 227.74755859 103.77294922 C241.97851068 120.35897309 254.48309154 138.77910967 264.4375 158.25 C264.89576172 159.14203125 265.35402344 160.0340625 265.82617188 160.953125 C301.82399519 231.73168008 308.17935805 313.40460292 284.46484375 389.23046875 C270.26492718 432.45720925 246.37858482 473.58405394 213.4375 505.25 C210.91424308 507.7568455 208.40976341 510.27851425 205.9296875 512.828125 C199.76864078 519.11791001 193.40446168 524.84413729 186.4375 530.25 C185.86435059 530.69956055 185.29120117 531.14912109 184.70068359 531.61230469 C122.66793094 580.10258025 43.82414397 601.37355078 -34.20507812 592.6628418 C-53.40569827 590.28142118 -72.12619803 586.08696201 -90.5625 580.25 C-91.37460938 579.99524902 -92.18671875 579.74049805 -93.0234375 579.47802734 C-145.24237913 562.84679494 -194.52796698 529.33088659 -228.5625 486.25 C-230.02068508 484.52070831 -231.47902154 482.79154426 -232.9375 481.0625 C-262.46146911 444.90335316 -282.03485398 399.90445515 -290.9375 354.3125 C-291.17629883 353.0941748 -291.41509766 351.87584961 -291.66113281 350.62060547 C-294.95546382 332.81167136 -295.94305279 315.21557818 -295.875 297.125 C-295.87284485 296.09063812 -295.8706897 295.05627625 -295.86846924 293.99057007 C-295.816913 278.55305273 -295.42534045 263.46279496 -292.5625 248.25 C-292.35318848 247.1269043 -292.14387695 246.00380859 -291.92822266 244.84667969 C-286.32240184 215.5599357 -277.56172109 187.43673303 -263.50390625 161.03564453 C-262.57043534 159.26505163 -261.67560417 157.4742634 -260.78125 155.68359375 C-252.60361857 139.46887021 -242.02260372 124.30967997 -230.5625 110.25 C-230.15483398 109.74082031 -229.74716797 109.23164062 -229.32714844 108.70703125 C-222.56298223 100.29724671 -215.10357653 92.58518638 -207.5 84.9375 C-206.59024414 84.018479 -205.68048828 83.09945801 -204.74316406 82.15258789 C-198.65744556 76.09477047 -192.30098058 70.56822963 -185.5625 65.25 C-184.95462646 64.76249268 -184.34675293 64.27498535 -183.72045898 63.77270508 C-140.06677582 28.88692233 -86.96372281 7.65374098 -31.5625 1.25 C-30.79220459 1.15428711 -30.02190918 1.05857422 -29.22827148 0.95996094 C-19.52292229 -0.10035915 -9.75110048 0.00617887 0 0 Z " fill="#ffffff" transform="translate(295.5625,-0.25)"/>
<path d="M0 0 C1.4355423 -0.00101212 1.4355423 -0.00101212 2.90008545 -0.00204468 C18.28113284 0.0151457 33.24250055 0.67225423 48.4375 3.25 C49.4476416 3.41628906 50.4577832 3.58257812 51.49853516 3.75390625 C76.0713728 7.91422364 99.67824844 15.13233427 122.4375 25.25 C123.24058594 25.60143066 124.04367187 25.95286133 124.87109375 26.31494141 C143.52068549 34.53347044 161.24078837 44.87139577 177.4375 57.25 C178.01935059 57.69053711 178.60120117 58.13107422 179.20068359 58.58496094 C186.43131264 64.07860145 193.32736912 69.80035364 199.984375 75.98046875 C202.13992371 77.97469454 204.33236135 79.90283403 206.5625 81.8125 C213.75605106 88.07927454 220.30821782 94.94877095 226.4375 102.25 C226.86981934 102.75257324 227.30213867 103.25514648 227.74755859 103.77294922 C241.97851068 120.35897309 254.48309154 138.77910967 264.4375 158.25 C264.89576172 159.14203125 265.35402344 160.0340625 265.82617188 160.953125 C301.82399519 231.73168008 308.17935805 313.40460292 284.46484375 389.23046875 C270.26492718 432.45720925 246.37858482 473.58405394 213.4375 505.25 C210.91424308 507.7568455 208.40976341 510.27851425 205.9296875 512.828125 C199.76864078 519.11791001 193.40446168 524.84413729 186.4375 530.25 C185.86435059 530.69956055 185.29120117 531.14912109 184.70068359 531.61230469 C122.66793094 580.10258025 43.82414397 601.37355078 -34.20507812 592.6628418 C-53.40569827 590.28142118 -72.12619803 586.08696201 -90.5625 580.25 C-91.37460938 579.99524902 -92.18671875 579.74049805 -93.0234375 579.47802734 C-145.24237913 562.84679494 -194.52796698 529.33088659 -228.5625 486.25 C-230.02068508 484.52070831 -231.47902154 482.79154426 -232.9375 481.0625 C-262.46146911 444.90335316 -282.03485398 399.90445515 -290.9375 354.3125 C-291.17629883 353.0941748 -291.41509766 351.87584961 -291.66113281 350.62060547 C-294.95546382 332.81167136 -295.94305279 315.21557818 -295.875 297.125 C-295.87284485 296.09063812 -295.8706897 295.05627625 -295.86846924 293.99057007 C-295.816913 278.55305273 -295.42534045 263.46279496 -292.5625 248.25 C-292.35318848 247.1269043 -292.14387695 246.00380859 -291.92822266 244.84667969 C-286.32240184 215.5599357 -277.56172109 187.43673303 -263.50390625 161.03564453 C-262.57043534 159.26505163 -261.67560417 157.4742634 -260.78125 155.68359375 C-252.60361857 139.46887021 -242.02260372 124.30967997 -230.5625 110.25 C-230.15483398 109.74082031 -229.74716797 109.23164062 -229.32714844 108.70703125 C-222.56298223 100.29724671 -215.10357653 92.58518638 -207.5 84.9375 C-206.59024414 84.018479 -205.68048828 83.09945801 -204.74316406 82.15258789 C-198.65744556 76.09477047 -192.30098058 70.56822963 -185.5625 65.25 C-184.95462646 64.76249268 -184.34675293 64.27498535 -183.72045898 63.77270508 C-140.06677582 28.88692233 -86.96372281 7.65374098 -31.5625 1.25 C-30.79220459 1.15428711 -30.02190918 1.05857422 -29.22827148 0.95996094 C-19.52292229 -0.10035915 -9.75110048 0.00617887 0 0 Z M-47.5625 36.25 C-48.54412109 36.43191895 -49.52574219 36.61383789 -50.53710938 36.80126953 C-100.97387387 46.45882249 -146.72831747 71.81414139 -183.5625 107.25 C-184.13242676 107.7980127 -184.70235352 108.34602539 -185.28955078 108.91064453 C-192.91562367 116.2895857 -200.11859611 123.79523249 -206.5625 132.25 C-206.98595703 132.80236328 -207.40941406 133.35472656 -207.84570312 133.92382812 C-215.026784 143.33672694 -221.49077697 153.09048319 -227.5625 163.25 C-227.94116211 163.87422852 -228.31982422 164.49845703 -228.70996094 165.14160156 C-264.79696738 224.95276316 -271.08357397 296.39126838 -255.62890625 363.3671875 C-254.71093781 367.03090153 -253.67998501 370.6435317 -252.5625 374.25 C-252.32257324 375.03890625 -252.08264648 375.8278125 -251.83544922 376.640625 C-242.49398807 406.80423129 -227.57861549 435.78585885 -207.5625 460.25 C-206.83804688 461.16523438 -206.11359375 462.08046875 -205.3671875 463.0234375 C-199.44883469 470.42668169 -193.08558731 477.38145324 -186.5625 484.25 C-185.77746094 485.07757813 -184.99242187 485.90515625 -184.18359375 486.7578125 C-178.6816874 492.40735498 -172.72785831 497.34413632 -166.5625 502.25 C-165.39460938 503.21873047 -165.39460938 503.21873047 -164.203125 504.20703125 C-118.85883944 541.56281012 -60.50489768 561.76533935 -1.93286133 561.51074219 C1.00004679 561.49999983 3.9323444 561.51071665 6.86523438 561.5234375 C17.9030446 561.53162734 28.52460912 560.93012669 39.4375 559.25 C41.13258268 559.02301662 42.82786207 558.79749142 44.5234375 558.57421875 C55.45377464 556.99756148 65.89719266 554.52732943 76.4375 551.25 C77.27571289 550.99202637 78.11392578 550.73405273 78.97753906 550.46826172 C91.53665837 546.56310944 103.60504797 541.99641186 115.4375 536.25 C116.25686035 535.85329102 117.0762207 535.45658203 117.92041016 535.04785156 C142.58176622 522.95867569 164.69398965 507.28681978 184.4375 488.25 C185.08009766 487.63463379 185.72269531 487.01926758 186.38476562 486.38525391 C195.0089666 478.08973173 203.02088372 469.64193492 210.13427734 460.01074219 C211.48600483 458.18446668 212.86062589 456.37708921 214.23828125 454.5703125 C220.60847576 446.14525201 226.30303049 437.47909768 231.4375 428.25 C232.14374512 426.9810791 232.14374512 426.9810791 232.86425781 425.68652344 C239.82804197 413.04423233 245.77469955 400.3277285 250.56274414 386.70874023 C251.16844601 385.00624972 251.79402599 383.31074987 252.43530273 381.62133789 C254.97083886 374.90580481 256.86664824 368.17422095 258.5 361.1875 C258.75676514 360.10202881 259.01353027 359.01655762 259.27807617 357.89819336 C262.9050918 342.27173382 265.55522263 326.63631994 265.640625 310.5625 C265.64768463 309.67029755 265.65474426 308.77809509 265.66201782 307.8588562 C266.02074817 249.13731131 253.37233676 193.67192064 218.4375 145.25 C218.00646973 144.64671875 217.57543945 144.0434375 217.13134766 143.421875 C210.94516667 134.80321215 204.41842753 126.74821122 197.1015625 119.06640625 C194.98094582 116.82452264 192.97421952 114.55559091 191 112.1875 C182.0830764 101.9351917 171.27359857 93.37106722 160.4375 85.25 C159.86386719 84.81945312 159.29023438 84.38890625 158.69921875 83.9453125 C126.04944239 59.62380866 88.35586032 43.90304978 48.4375 36.25 C47.42606934 36.05245117 46.41463867 35.85490234 45.37255859 35.65136719 C14.7237797 29.88851016 -16.96765967 30.48623519 -47.5625 36.25 Z " fill="#E60006" transform="translate(295.5625,-0.25)"/>
<path d="M0 0 C6.46153846 0.46153846 6.46153846 0.46153846 9 3 C9.50272849 8.39018158 8.36917653 12.51691459 6.28125 17.40625 C5.99223816 18.11055649 5.70322632 18.81486298 5.40545654 19.54051208 C4.44837386 21.86524184 3.47421865 24.18240531 2.5 26.5 C1.81489527 28.15519016 1.13099952 29.81088119 0.44824219 31.46704102 C-0.97962606 34.92604873 -2.41401062 38.3822451 -3.85351562 41.83642578 C-5.88491143 46.71526868 -7.89230422 51.60362458 -9.890625 56.49609375 C-15.59084783 70.44515324 -21.32534687 84.37977262 -27.09375 98.30078125 C-27.9599742 100.39265401 -28.82618519 102.48453225 -29.69238281 104.57641602 C-31.3608095 108.60541579 -33.03248059 112.63304818 -34.70605469 116.65991211 C-40.1333098 129.72181671 -40.1333098 129.72181671 -45 143 C-44.31309082 143.10618652 -43.62618164 143.21237305 -42.91845703 143.32177734 C-39.47828796 144.1212411 -36.52804311 145.40447688 -33.3046875 146.8515625 C-32.32453674 147.28835075 -32.32453674 147.28835075 -31.32458496 147.73396301 C-29.910981 148.36429878 -28.49835387 148.99682883 -27.08660889 149.63131714 C-23.30223288 151.33164924 -19.51035264 153.01507751 -15.71875 154.69921875 C-14.93124359 155.04938553 -14.14373718 155.39955231 -13.33236694 155.7603302 C-4.38093399 159.73268884 4.61922191 163.59031019 13.625 167.4375 C14.40232483 167.769776 15.17964966 168.102052 15.98052979 168.44439697 C20.31927931 170.29878906 24.65909643 172.15065615 29 174 C31.97914259 171.0897282 34.29757732 168.25255861 36.5625 164.75 C39.71570076 159.93875087 42.91971212 155.17165562 46.1875 150.4375 C47.12901258 149.07168788 48.07041595 147.70580046 49.01171875 146.33984375 C49.49688965 145.63585449 49.98206055 144.93186523 50.48193359 144.20654297 C53.1627463 140.30992263 55.83083547 136.40460415 58.5 132.5 C62.49228515 126.66133425 66.49044482 120.82681977 70.5 115 C76.12952682 106.81821594 81.73696302 98.62138496 87.34277344 90.42333984 C90.06109401 86.44837668 92.78059969 82.47422452 95.5 78.5 C96.58333917 76.91667066 97.6666725 75.33333732 98.75 73.75 C105.25 64.25 111.75 54.75 118.25 45.25 C119.05497925 44.0734082 119.05497925 44.0734082 119.8762207 42.87304688 C120.95527482 41.2960801 122.03453781 39.71925623 123.11401367 38.14257812 C125.889584 34.08800688 128.66103993 30.03071454 131.42578125 25.96875 C134.13066672 21.99585264 136.84910146 18.03255567 139.57666016 14.07519531 C140.8691737 12.19074161 142.14509504 10.29617649 143.41796875 8.3984375 C144.10503906 7.40070313 144.79210937 6.40296875 145.5 5.375 C146.0671875 4.53710938 146.634375 3.69921875 147.21875 2.8359375 C149.44238727 0.54403067 150.83878962 0.16585047 154 0 C156.8125 1.5625 156.8125 1.5625 159 4 C159.5160227 8.63032207 158.77065961 11.07290795 156.10546875 14.8359375 C155.17492676 16.17277588 155.17492676 16.17277588 154.22558594 17.53662109 C153.55301758 18.47328613 152.88044922 19.40995117 152.1875 20.375 C151.50333008 21.35162598 150.81916016 22.32825195 150.11425781 23.33447266 C148.72980805 25.31008311 147.34003954 27.28197764 145.94482422 29.25 C143.34088342 32.93199713 140.79421819 36.65163906 138.25 40.375 C137.37035888 41.65403611 136.49015553 42.93268575 135.609375 44.2109375 C132.90387707 48.13899502 130.20174755 52.06936234 127.5 56 C124.77415956 59.96534094 122.04802677 63.930479 119.3203125 67.89453125 C114.37016619 75.08951135 109.42977219 82.29104237 104.5 89.5 C99.12647012 97.35787815 93.7391099 105.20611092 88.34277344 113.04833984 C86.06091481 116.36491763 83.78052537 119.68250537 81.5 123 C78.77413916 126.96532693 76.04802678 130.93047898 73.3203125 134.89453125 C69.47621561 140.48188137 65.63441867 146.07075792 61.8046875 151.66796875 C61.26070312 152.46259521 60.71671875 153.25722168 60.15625 154.07592773 C59.0572976 155.68434436 57.96091576 157.29452053 56.8671875 158.90649414 C54.20385708 162.82426279 51.50512619 166.70123188 48.6953125 170.515625 C48.17775391 171.23041016 47.66019531 171.94519531 47.12695312 172.68164062 C46.15483802 174.0203531 45.16739566 175.3481237 44.16210938 176.66210938 C42.05209454 179.59600482 41.01277278 181.57900919 40.90234375 185.21875 C42.46738877 190.61007948 44.65682469 195.62618429 46.9375 200.75 C48.04107708 203.27649071 49.14273267 205.80375036 50.2421875 208.33203125 C50.53909988 209.01278214 50.83601227 209.69353302 51.141922 210.39491272 C54.65606481 218.46953742 58.04164458 226.5976344 61.4312439 234.72512817 C63.35651266 239.34127542 65.28548054 243.95587533 67.21484375 248.5703125 C67.60680435 249.50780838 67.99876495 250.44530426 68.40260315 251.41120911 C72.39014501 260.94271109 76.40644503 270.46199831 80.42822266 279.97909546 C81.61878462 282.7977849 82.80764857 285.61718506 83.99609375 288.43676758 C87.48303693 296.70533342 90.97928393 304.96923418 94.52880859 313.21116638 C96.02639359 316.69109245 97.51577825 320.1744982 99.0043335 323.65829468 C99.69843595 325.27632568 100.39658487 326.89262809 101.09918213 328.50698853 C107.29995866 342.75752854 111.21725394 355.17732774 106.5 370.5625 C102.39553868 380.93478493 93.72014948 388.17627248 83.92578125 393.02734375 C74.27181401 396.89963745 63.75408767 395.94772594 54.3046875 392.0703125 C52.18199108 391.08451789 50.08358562 390.06579725 48 389 C47.62875 389.86625 47.62875 389.86625 47.25 390.75 C45.7432025 393.46223549 44.48756387 395.11751924 42 397 C38.51143969 397.42841969 36.15097604 397.66830867 33.0625 395.875 C31.39141695 392.92602991 31.42856746 391.36510272 32 388 C33.77859074 385.13878881 35.81587656 382.56114475 38 380 C28.61227185 371.2752266 28.61227185 371.2752266 19.0234375 362.7734375 C16.48498829 360.54861908 13.99358224 358.27496681 11.5 356 C7.04991029 351.94092236 2.55463859 347.94126319 -2 344 C-2.78375 344.78375 -3.5675 345.5675 -4.375 346.375 C-9 351 -9 351 -12.4375 351.3125 C-16 351 -16 351 -17.9375 349.9375 C-19.70339539 346.71733781 -19.54212587 344.61417246 -19 341 C-17.63256836 339.10253906 -17.63256836 339.10253906 -15.96484375 337.265625 C-15.41304443 336.64977539 -14.86124512 336.03392578 -14.29272461 335.39941406 C-13.86612549 334.93760742 -13.43952637 334.47580078 -13 334 C-23.41428988 324.16329094 -23.41428988 324.16329094 -34.11328125 314.640625 C-36.44569143 312.61244223 -38.71826255 310.52247643 -41 308.4375 C-45.15220199 304.68380656 -49.44229682 301.24640869 -54 298 C-54.78375 298.969375 -55.5675 299.93875 -56.375 300.9375 C-57.91288705 302.83962346 -58.79259913 303.89629957 -61 305 C-66.21653972 305.44396083 -66.21653972 305.44396083 -68.875 303.9375 C-70.69632206 300.80077867 -70.48924087 298.54699627 -70 295 C-68.37347684 293.29413425 -66.70993434 291.6222454 -65 290 C-65.09774987 287.06750387 -65.98096868 286.02007006 -68.00390625 283.88671875 C-68.84824219 283.16097656 -69.69257813 282.43523437 -70.5625 281.6875 C-71.92955078 280.49833984 -71.92955078 280.49833984 -73.32421875 279.28515625 C-74.20722656 278.53105469 -75.09023437 277.77695312 -76 277 C-77.29326394 275.87683654 -78.58507031 274.7519912 -79.875 273.625 C-80.51179688 273.07070313 -81.14859375 272.51640625 -81.8046875 271.9453125 C-84.56750499 269.49712191 -87.28346205 266.99919803 -90 264.5 C-91.0298282 263.55716089 -92.05977409 262.6144503 -93.08984375 261.671875 C-94.8829205 260.02561393 -96.66849322 258.37108158 -98.44140625 256.703125 C-99.14136719 256.05859375 -99.84132813 255.4140625 -100.5625 254.75 C-101.16191406 254.18796875 -101.76132813 253.6259375 -102.37890625 253.046875 C-102.91386719 252.70140625 -103.44882813 252.3559375 -104 252 C-107.18026528 252.72906236 -107.18026528 252.72906236 -108.75 255.5 C-111 258 -111 258 -114.5 259.0625 C-118 259 -118 259 -120.4375 257.4375 C-122.53080206 254.17194879 -122.82375618 252.81923321 -122 249 C-119.8909174 246.39897257 -117.53287299 244.18395681 -115 242 C-115.61875 240.845 -116.2375 239.69 -116.875 238.5 C-120.78194127 230.60299105 -122.63029984 222.1136244 -120.3125 213.421875 C-116.41440153 202.83204082 -108.69414591 195.38927175 -101.109375 187.32421875 C-98.2441275 184.27414405 -95.47224291 181.15642044 -92.73828125 177.98828125 C-90.52743511 175.45947072 -88.26403557 172.98127436 -86 170.5 C-82.56653309 166.73559652 -79.17694144 162.94255627 -75.84765625 159.0859375 C-74.445926 157.50343442 -73.00987037 155.9512547 -71.55859375 154.4140625 C-70.69363281 153.49367187 -69.82867187 152.57328125 -68.9375 151.625 C-68.14214844 150.79226562 -67.34679687 149.95953125 -66.52734375 149.1015625 C-59.53112468 140.93999811 -55.73850829 131.0649465 -51.79714966 121.21148682 C-50.78166065 118.67290592 -49.75625738 116.13852495 -48.72827148 113.60498047 C-47.62751883 110.89178352 -46.52738905 108.17835126 -45.43019104 105.4637146 C-41.19781192 94.99399197 -36.88058287 84.55959546 -32.5625 74.125 C-31.76589069 72.19875521 -30.96934123 70.27248567 -30.17285156 68.34619141 C-28.97812846 65.45681501 -27.7833096 62.56747853 -26.58807373 59.67831421 C-24.17316966 53.8403716 -21.76268782 48.00062642 -19.35560608 42.15945435 C-17.79726233 38.37915085 -16.23650998 34.59984478 -14.67526245 30.82073975 C-13.94239789 29.04532746 -13.21054015 27.26949918 -12.47976685 25.4932251 C-11.46972839 23.03860938 -10.45598939 20.58555255 -9.44140625 18.1328125 C-9.00513916 17.06873169 -9.00513916 17.06873169 -8.56005859 15.9831543 C-3.29621579 3.29621579 -3.29621579 3.29621579 0 0 Z " fill="#E92516" transform="translate(221,98)"/>
<path d="M0 0 C6.10131034 1.92488726 11.9524812 4.1676228 17.79296875 6.7734375 C18.60978622 7.13331253 19.4266037 7.49318756 20.26817322 7.8639679 C24.74511593 9.83845391 29.21320297 11.83266115 33.68115234 13.82739258 C35.52801147 14.64994508 37.3751798 15.47180369 39.22265625 16.29296875 C40.13714539 16.69947159 41.05163452 17.10597443 41.99383545 17.52479553 C47.65046083 20.01950671 53.34610665 22.34586569 59.12109375 24.55078125 C61.15410405 25.34872585 63.18562586 26.15034121 65.21670532 26.95318604 C67.06302062 27.66365026 68.93026188 28.31897564 70.79760742 28.97216797 C77.313487 31.56503576 80.5931703 33.9777972 83.65234375 40.3671875 C84.500711 42.43261571 85.30051189 44.51009027 86.08129883 46.60202026 C87.46320809 50.20905868 89.02025832 53.73627244 90.55856323 57.27882385 C92.39252176 61.51222815 94.18774418 65.76175321 95.98638916 70.01025391 C98.25030322 75.35718565 100.52180762 80.70088992 102.79276276 86.04483414 C103.58632027 87.91243777 104.37957373 89.78017033 105.17279053 91.6479187 C110.96221672 105.27726761 116.79073404 118.88979424 122.625 132.5 C123.13064484 133.68010651 123.63628967 134.86021301 124.15725708 136.07608032 C128.86047268 147.05176798 133.56603118 158.02626527 138.328125 168.9765625 C138.64264618 169.70006897 138.95716736 170.42357544 139.28121948 171.16900635 C140.65793546 174.33399515 142.03825052 177.49729145 143.42431641 180.65820312 C143.87983887 181.70169922 144.33536133 182.74519531 144.8046875 183.8203125 C145.37678955 185.12379639 145.37678955 185.12379639 145.96044922 186.45361328 C149.38094746 194.83214701 150.51160053 202.4479281 147.5625 211.1875 C144.51239234 217.95593679 138.89564293 223.00475673 132.125 226 C125.50990539 227.99502853 118.65689268 228.07824043 112.25 225.375 C105.11844052 221.4104909 99.44411272 215.22916161 93.64160156 209.58105469 C91.73020252 207.74015341 89.761817 205.98032821 87.75 204.25 C84.61682988 201.5527492 81.55386574 198.78686109 78.5 196 C74.72360983 192.55605683 70.91621742 189.15705069 67.05859375 185.8046875 C63.00016101 182.24682047 59.00424976 178.61859456 55 175 C57.51550614 172.48449386 59.65443656 171.95319325 63.03125 170.8359375 C64.23394531 170.43632812 65.43664062 170.03671875 66.67578125 169.625 C67.30307129 169.42003906 67.93036133 169.21507812 68.57666016 169.00390625 C70.49486312 168.37667969 72.4096892 167.73990295 74.32421875 167.1015625 C83.71953632 164 83.71953632 164 86 164 C86.04125 162.72125 86.0825 161.4425 86.125 160.125 C86.14820313 159.40570313 86.17140625 158.68640625 86.1953125 157.9453125 C86.18331689 155.76136355 86.18331689 155.76136355 84 154 C78.73506028 153.56159299 74.66938892 154.50846732 69.7109375 156.22265625 C68.3437539 156.68295428 66.97656628 157.14324038 65.609375 157.60351562 C63.48423507 158.33347854 61.36054418 159.06750737 59.23730469 159.80297852 C57.16923851 160.51527538 55.09668663 161.21311803 53.0234375 161.91015625 C51.79544434 162.33433838 50.56745117 162.75852051 49.30224609 163.19555664 C45.92305561 164.01874403 44.24155108 164.16842194 41 163 C39.09057617 161.62060547 39.09057617 161.62060547 37.29296875 159.8671875 C36.62330078 159.22523438 35.95363281 158.58328125 35.26367188 157.921875 C34.57853516 157.24640625 33.89339844 156.5709375 33.1875 155.875 C31.82812367 154.55855134 30.46744774 153.24344331 29.10546875 151.9296875 C28.10265869 150.95854004 28.10265869 150.95854004 27.07958984 149.96777344 C23.81042123 146.87438308 20.41540337 143.93009559 17 141 C19.62579045 139.24947304 21.4906969 138.38200805 24.4296875 137.4140625 C25.30117432 137.1250708 26.17266113 136.8360791 27.07055664 136.53833008 C27.99602295 136.23693115 28.92148926 135.93553223 29.875 135.625 C30.8230249 135.31264404 31.7710498 135.00028809 32.74780273 134.6784668 C38.82982177 132.68290956 44.93079547 130.7650942 51.0546875 128.90234375 C54.27348091 127.91621473 57.4836961 126.90885161 60.6875 125.875 C62.14736328 125.40707031 62.14736328 125.40707031 63.63671875 124.9296875 C66.13938987 124.12671916 66.13938987 124.12671916 68 122 C67.90304884 117.65805064 67.90304884 117.65805064 66 114 C59.41792521 113.35796966 53.95556335 115.36265972 47.7734375 117.46484375 C46.7075943 117.8176088 45.6417511 118.17037384 44.54360962 118.53382874 C41.15073452 119.65863029 37.76276641 120.79741408 34.375 121.9375 C30.97928517 123.07140903 27.58261821 124.20236618 24.18496704 125.33045959 C22.07457614 126.0320954 19.96544877 126.73754596 17.85775757 127.44725037 C16.89971222 127.76750687 15.94166687 128.08776337 14.95458984 128.41772461 C14.1163266 128.69974228 13.27806335 128.98175995 12.41439819 129.27232361 C9.91903702 130.02440146 7.59278287 130.7012802 5 131 C2.84227297 129.43020136 1.15983287 127.99998003 -0.6875 126.125 C-4.04224727 122.66188994 -4.04224727 122.66188994 -8 120 C-7.41253423 116.05760922 -6.18996078 113.24456569 -4.1875 109.8125 C5.72821521 92.04486676 9.31058759 71.67705331 4.5 51.6875 C0.84576579 39.03921749 -5.15100213 27.79038062 -14 18 C-12.68180513 14.0861843 -11.13022856 11.81244032 -8.125 9 C-5.15880479 6.1524526 -2.47391282 3.29855042 0 0 Z " fill="#ffffff" transform="translate(168,252)"/>
<path d="M0 0 C15.76001705 14.85296571 25.00948182 35.28921277 25.78271484 56.81982422 C26.05466632 80.14969399 17.03428865 100.74878051 1.07421875 117.7109375 C-13.85836682 131.77755983 -32.99244191 140.14051869 -53.5 139.8125 C-54.72541504 139.79968994 -55.95083008 139.78687988 -57.21337891 139.77368164 C-76.10769049 139.35227972 -92.24137715 133.76314674 -106.6875 121.3125 C-107.35007812 120.79300781 -108.01265625 120.27351562 -108.6953125 119.73828125 C-124.48393521 106.95259266 -133.5495022 86.20308623 -135.6875 66.3125 C-137.02462326 42.40801063 -129.82615557 22.1900539 -114.4375 4.0625 C-82.92627292 -29.13877559 -34.20046219 -29.26724712 0 0 Z M-106.5859375 14.72265625 C-118.27818905 29.13150899 -123.68242423 46.51497607 -122.44140625 64.97265625 C-119.90232689 85.26282138 -110.96166626 101.21823367 -95.25 114.1875 C-83.42716073 122.84350732 -70.9771119 126.89121526 -56.4375 126.75 C-55.3350293 126.74170166 -54.23255859 126.73340332 -53.09667969 126.72485352 C-33.50551796 126.31946939 -18.132497 118.25179836 -4.6875 104.3125 C7.32808775 91.19847232 13.37780698 73.93758386 12.6328125 56.23046875 C10.94289367 35.55987624 2.0413578 18.78159302 -13.6875 5.3125 C-43.2786092 -16.91007213 -81.41994123 -11.3127108 -106.5859375 14.72265625 Z " fill="#E92617" transform="translate(470.6875,274.6875)"/>
<path d="M0 0 C0.66 0 1.32 0 2 0 C15.57271042 15.81150802 19.38461434 33.77940574 18 54 C16.79628825 64.24335098 11.79153604 73.03151924 7 82 C3.42066846 82 3.04917452 81.46894437 0.5 79.125 C-0.20125 78.48820312 -0.9025 77.85140625 -1.625 77.1953125 C-2.40875 76.47085938 -3.1925 75.74640625 -4 75 C-5.83260999 73.332538 -7.66597526 71.6659058 -9.5 70 C-10.43070313 69.14921875 -11.36140625 68.2984375 -12.3203125 67.421875 C-14.64120537 65.32427503 -16.99500737 63.27972957 -19.375 61.25 C-24.64178709 56.65235389 -29.52248476 51.99685588 -30.21875 44.7109375 C-30.45351897 38.23522675 -29.77872793 33.08538935 -25.265625 28.07421875 C-23.89632997 26.70757739 -22.50875452 25.35905939 -21.10546875 24.02734375 C-18.51794695 21.53583389 -16.20314267 18.87020733 -13.86328125 16.1484375 C-10.97087998 12.81338363 -7.98818183 9.56045138 -5.015625 6.296875 C-2.98573474 4.06085025 -2.98573474 4.06085025 -1.359375 1.703125 C-0.68648437 0.86007812 -0.68648437 0.86007812 0 0 Z " fill="#ffffff" transform="translate(144,278)"/>
</svg>
