<?xml version="1.0" encoding="UTF-8"?>
<svg version="1.1" xmlns="http://www.w3.org/2000/svg" width="565" height="565">
<path d="M0 0 C1.1744165 0.56775146 1.1744165 0.56775146 2.37255859 1.14697266 C20.49709604 10.01594801 37.37114746 21.25335144 53 34 C53.51981445 34.41830078 54.03962891 34.83660156 54.57519531 35.26757812 C69.69748749 47.50031839 84.31457672 61.41943562 96 77 C96.92207937 78.18314798 97.84534896 79.36536892 98.76953125 80.546875 C127.53762772 117.68072644 145.7807227 160.85628267 154 207 C154.16516113 207.87446777 154.33032227 208.74893555 154.50048828 209.64990234 C159.82419402 238.74585357 159.48438712 271.96217668 154 301 C153.74259033 302.44511963 153.74259033 302.44511963 153.47998047 303.91943359 C149.33331164 326.91324956 142.38021669 348.6252041 133 370 C132.49533203 371.15604736 132.49533203 371.15604736 131.98046875 372.33544922 C122.16466291 394.59210459 108.87281641 415.57231246 93 434 C92.11305065 435.06904274 91.22772476 436.13943381 90.34375 437.2109375 C79.43910237 450.32336605 67.54554977 462.60248636 54 473 C52.73754054 474.00167131 51.47588173 475.00435222 50.21484375 476.0078125 C39.93255286 484.11519011 29.23236128 491.27942157 18 498 C17.28295898 498.4340918 16.56591797 498.86818359 15.82714844 499.31542969 C-17.06360739 519.06202559 -55.04699511 530.4412226 -93 535 C-93.76505859 535.09571289 -94.53011719 535.19142578 -95.31835938 535.29003906 C-104.88617915 536.33034371 -114.51236747 536.24376091 -124.125 536.25 C-125.05963074 536.25067474 -125.99426147 536.25134949 -126.95721436 536.25204468 C-141.84335079 536.23500593 -156.31188827 535.6244181 -171 533 C-172.0007959 532.82307617 -173.0015918 532.64615234 -174.03271484 532.46386719 C-224.77406476 523.22075201 -273.62154204 501.19630396 -311.74609375 466.0703125 C-313.75303483 464.22684843 -315.79912242 462.45220907 -317.875 460.6875 C-327.17532514 452.55206407 -335.33437319 443.67628302 -343 434 C-344.49924862 432.20770453 -345.99925592 430.41604345 -347.5 428.625 C-355.58494014 418.72622111 -362.54789237 408.02047055 -369 397 C-369.62261719 395.94329102 -369.62261719 395.94329102 -370.2578125 394.86523438 C-392.52440963 356.74508052 -406.98096422 311.19918065 -407.203125 266.8046875 C-407.21364647 265.39132111 -407.21364647 265.39132111 -407.22438049 263.94940186 C-407.24179098 260.92455207 -407.24823302 257.89989806 -407.25 254.875 C-407.25101212 253.32483185 -407.25101212 253.32483185 -407.25204468 251.74334717 C-407.23631513 236.59741014 -406.80755679 221.92205378 -404 207 C-403.83371094 206.05253906 -403.66742188 205.10507813 -403.49609375 204.12890625 C-395.13514904 156.99795126 -375.01675813 113.20915222 -345 76 C-344.53190918 75.41476563 -344.06381836 74.82953125 -343.58154297 74.2265625 C-331.43410951 59.15836352 -317.49947933 44.6246095 -302 33 C-300.81685202 32.07792063 -299.63463108 31.15465104 -298.453125 30.23046875 C-274.38906824 11.58605344 -247.69431079 -2.85758707 -219 -13 C-218.2049707 -13.28423828 -217.40994141 -13.56847656 -216.59082031 -13.86132812 C-146.1273335 -38.67452034 -66.85311588 -32.49483089 0 0 Z " fill="#ffffff" transform="translate(407,29)"/>
<path d="M0 0 C1.1744165 0.56775146 1.1744165 0.56775146 2.37255859 1.14697266 C20.49709604 10.01594801 37.37114746 21.25335144 53 34 C53.51981445 34.41830078 54.03962891 34.83660156 54.57519531 35.26757812 C69.69748749 47.50031839 84.31457672 61.41943562 96 77 C96.92207937 78.18314798 97.84534896 79.36536892 98.76953125 80.546875 C127.53762772 117.68072644 145.7807227 160.85628267 154 207 C154.16516113 207.87446777 154.33032227 208.74893555 154.50048828 209.64990234 C159.82419402 238.74585357 159.48438712 271.96217668 154 301 C153.74259033 302.44511963 153.74259033 302.44511963 153.47998047 303.91943359 C149.33331164 326.91324956 142.38021669 348.6252041 133 370 C132.49533203 371.15604736 132.49533203 371.15604736 131.98046875 372.33544922 C122.16466291 394.59210459 108.87281641 415.57231246 93 434 C92.11305065 435.06904274 91.22772476 436.13943381 90.34375 437.2109375 C79.43910237 450.32336605 67.54554977 462.60248636 54 473 C52.73754054 474.00167131 51.47588173 475.00435222 50.21484375 476.0078125 C39.93255286 484.11519011 29.23236128 491.27942157 18 498 C17.28295898 498.4340918 16.56591797 498.86818359 15.82714844 499.31542969 C-17.06360739 519.06202559 -55.04699511 530.4412226 -93 535 C-93.76505859 535.09571289 -94.53011719 535.19142578 -95.31835938 535.29003906 C-104.88617915 536.33034371 -114.51236747 536.24376091 -124.125 536.25 C-125.05963074 536.25067474 -125.99426147 536.25134949 -126.95721436 536.25204468 C-141.84335079 536.23500593 -156.31188827 535.6244181 -171 533 C-172.0007959 532.82307617 -173.0015918 532.64615234 -174.03271484 532.46386719 C-224.77406476 523.22075201 -273.62154204 501.19630396 -311.74609375 466.0703125 C-313.75303483 464.22684843 -315.79912242 462.45220907 -317.875 460.6875 C-327.17532514 452.55206407 -335.33437319 443.67628302 -343 434 C-344.49924862 432.20770453 -345.99925592 430.41604345 -347.5 428.625 C-355.58494014 418.72622111 -362.54789237 408.02047055 -369 397 C-369.62261719 395.94329102 -369.62261719 395.94329102 -370.2578125 394.86523438 C-392.52440963 356.74508052 -406.98096422 311.19918065 -407.203125 266.8046875 C-407.21364647 265.39132111 -407.21364647 265.39132111 -407.22438049 263.94940186 C-407.24179098 260.92455207 -407.24823302 257.89989806 -407.25 254.875 C-407.25101212 253.32483185 -407.25101212 253.32483185 -407.25204468 251.74334717 C-407.23631513 236.59741014 -406.80755679 221.92205378 -404 207 C-403.83371094 206.05253906 -403.66742188 205.10507813 -403.49609375 204.12890625 C-395.13514904 156.99795126 -375.01675813 113.20915222 -345 76 C-344.53190918 75.41476563 -344.06381836 74.82953125 -343.58154297 74.2265625 C-331.43410951 59.15836352 -317.49947933 44.6246095 -302 33 C-300.81685202 32.07792063 -299.63463108 31.15465104 -298.453125 30.23046875 C-274.38906824 11.58605344 -247.69431079 -2.85758707 -219 -13 C-218.2049707 -13.28423828 -217.40994141 -13.56847656 -216.59082031 -13.86132812 C-146.1273335 -38.67452034 -66.85311588 -32.49483089 0 0 Z M-312 87 C-315.17291523 90.55064324 -318.12841561 94.20277668 -321 98 C-321.42055664 98.54946289 -321.84111328 99.09892578 -322.27441406 99.66503906 C-344.74384421 129.11275377 -360.75064141 161.84213896 -369 198 C-369.29946533 199.28535645 -369.29946533 199.28535645 -369.60498047 200.59667969 C-377.21101087 233.7294467 -376.75701395 267.63857432 -371 301 C-370.86110352 301.81500977 -370.72220703 302.63001953 -370.57910156 303.46972656 C-362.7242627 347.10105796 -340.38947026 390.02261147 -310 422 C-308.78427491 423.3894001 -307.57537389 424.78481591 -306.375 426.1875 C-300.38483781 433.04136 -293.9441428 439.02751455 -286.83984375 444.71875 C-285.00096157 446.19592633 -283.17921177 447.6947954 -281.37890625 449.21875 C-261.42941198 466.05576746 -238.13702808 478.34338548 -214 488 C-212.87996582 488.45197754 -212.87996582 488.45197754 -211.73730469 488.91308594 C-165.26892559 507.35705688 -109.9787794 510.00197031 -62 496 C-60.43240226 495.56470569 -58.86468691 495.12983479 -57.296875 494.6953125 C-39.39701715 489.63103072 -22.41420457 482.7353851 -6 474 C-5.03465332 473.49629883 -5.03465332 473.49629883 -4.04980469 472.98242188 C12.3967787 464.3624821 27.14116981 453.30841311 41 441 C41.99257813 440.12988281 42.98515625 439.25976562 44.0078125 438.36328125 C57.28247342 426.57896437 68.60907606 413.36853961 79 399 C79.4444043 398.38576172 79.88880859 397.77152344 80.34667969 397.13867188 C115.72827929 347.58811502 133.16775802 280.59679241 123.359375 220.09716797 C123.24078125 219.40510254 123.1221875 218.71303711 123 218 C122.87109375 217.23961426 122.7421875 216.47922852 122.609375 215.69580078 C121.5704132 209.75904801 120.33089785 203.87759117 119 198 C118.79922852 197.10152344 118.59845703 196.20304688 118.39160156 195.27734375 C108.32462255 151.16256975 85.25490031 111.45932807 54 79 C53.24734863 78.21447754 53.24734863 78.21447754 52.47949219 77.41308594 C45.72612391 70.39913753 38.7338202 63.93691646 31 58 C30.34177246 57.48711426 29.68354492 56.97422852 29.00537109 56.44580078 C16.95282921 47.09678408 4.4803065 39.12934845 -9 32 C-9.8053418 31.5673584 -10.61068359 31.1347168 -11.44042969 30.68896484 C-35.02216999 18.17708755 -61.63328207 9.90203154 -88 6 C-88.83160645 5.87302734 -89.66321289 5.74605469 -90.52001953 5.61523438 C-173.74196559 -6.40067879 -255.15803588 26.54902228 -312 87 Z " fill="#E92212" transform="translate(407,29)"/>
<path d="M0 0 C2.7816973 2.62125762 4.84830225 5.11451053 6.7421875 8.4296875 C7.24371338 9.2961792 7.74523926 10.1626709 8.26196289 11.05541992 C9.06041626 12.45111206 9.06041626 12.45111206 9.875 13.875 C16.07791648 24.54684589 22.62429581 34.96182494 29.29785156 45.34375 C32.53536264 50.39597612 35.72989412 55.47537068 38.92700195 60.55322266 C41.0346951 63.89829846 43.14703043 67.23903229 45.30078125 70.5546875 C45.94402344 71.54726562 46.58726562 72.53984375 47.25 73.5625 C47.79140625 74.38878906 48.3328125 75.21507812 48.890625 76.06640625 C50 78 50 78 50 80 C56.72554783 80.20318667 63.45030236 80.34307839 70.17822266 80.43945312 C72.46563287 80.47963429 74.75283825 80.53419158 77.03955078 80.60351562 C80.3315685 80.70080255 83.62086751 80.74598 86.9140625 80.78125 C88.44252304 80.84318542 88.44252304 80.84318542 90.00186157 80.90637207 C95.3815588 80.96313172 95.3815588 80.96313172 99.89138794 78.3697052 C101.45973504 76.3191234 102.74728257 74.25519095 104 72 C104.64662598 71.01217529 105.29325195 70.02435059 105.95947266 69.0065918 C106.5219873 68.08015869 107.08450195 67.15372559 107.6640625 66.19921875 C108.30480713 65.14976074 108.94555176 64.10030273 109.60571289 63.01904297 C110.27207764 61.91963379 110.93844238 60.82022461 111.625 59.6875 C113.05137165 57.34902815 114.48078593 55.01242106 115.91015625 52.67578125 C116.26252853 52.09896606 116.61490082 51.52215088 116.97795105 50.92785645 C120.41834277 45.30149175 123.93359658 39.72463708 127.47094727 34.15893555 C130.33012766 29.65593311 133.16062769 25.13662644 135.96875 20.6015625 C136.64800537 19.50666504 137.32726074 18.41176758 138.02709961 17.28369141 C139.35935519 15.13437659 140.68842253 12.98308146 142.01391602 10.82958984 C142.92161743 9.36706787 142.92161743 9.36706787 143.84765625 7.875 C144.38398682 7.00617188 144.92031738 6.13734375 145.47290039 5.2421875 C147 3 147 3 150 0 C155.445 3.96 155.445 3.96 161 8 C160.12276667 12.38616667 159.36805902 14.48379041 157.18359375 18.19140625 C156.59263916 19.20380371 156.00168457 20.21620117 155.39282227 21.25927734 C154.42493774 22.89437256 154.42493774 22.89437256 153.4375 24.5625 C152.75948891 25.72037069 152.08234097 26.8787472 151.40600586 28.03759766 C150.34742071 29.85125266 149.2883502 31.66460291 148.22676086 33.47650146 C144.45560152 39.91438984 140.75680529 46.3927037 137.0625 52.875 C136.06756619 54.61888349 135.07234429 56.36260231 134.07707214 58.10629272 C133.40820797 59.27813568 132.73943566 60.45003108 132.070755 61.62197876 C129.59961833 65.95225993 127.12288113 70.27931275 124.64453125 74.60546875 C123.56777723 76.48605643 122.491127 78.36670349 121.41452026 80.24737549 C120.41127563 81.9991585 119.40695193 83.75032339 118.40258789 85.50146484 C117.16548133 87.663227 115.94232002 89.83303922 114.734375 92.01123047 C113 95 113 95 111.234375 97.41455078 C105.23218923 106.18848052 106.09757497 116.2768904 106.21777344 126.50146484 C106.24952369 129.70198697 106.21821622 132.89730263 106.1796875 136.09765625 C106.15002897 150.88307544 108.6638108 163.91011479 113 178 C113.63666344 180.21709027 114.27236152 182.4344585 114.90625 184.65234375 C115.43509491 186.41478597 115.96627264 188.1765302 116.5 189.9375 C119.21494445 199.05950207 121.60883695 208.2296158 123.86669922 217.47436523 C125.31362665 223.36362223 126.87275718 229.19438435 128.625 235 C130.30734539 240.57642674 131.88032177 246.16614056 133.3125 251.8125 C133.48410645 252.47701172 133.65571289 253.14152344 133.83251953 253.82617188 C134.63137565 257.03492449 135 259.6589393 135 263 C128.4 263 121.8 263 115 263 C114.51345947 261.69071533 114.02691895 260.38143066 113.52563477 259.0324707 C104.88641077 235.78987008 96.23710131 212.55091352 87.49435425 189.34701538 C86.74791372 187.36512918 86.00241032 185.38288978 85.25784302 183.40029907 C84.22408488 180.64864787 83.18680968 177.89835025 82.1484375 175.1484375 C81.84202835 174.33109634 81.5356192 173.51375519 81.21992493 172.67164612 C80.06844353 169.06541427 80.06844353 169.06541427 78 166 C75.08461971 165.49957854 75.08461971 165.49957854 72 166 C69.1486818 169.85140053 67.64211846 174.27443958 66.03125 178.74609375 C65.6162751 179.87856789 65.6162751 179.87856789 65.19291687 181.03392029 C64.29049338 183.50006232 63.39526536 185.96875145 62.5 188.4375 C61.87200286 190.15724728 61.24349827 191.87680933 60.61450195 193.59619141 C59.34268596 197.07503434 58.07359952 200.55485207 56.80712891 204.03564453 C54.27810386 210.98607478 51.73319186 217.9306609 49.1875 224.875 C48.74881592 226.07326416 48.31013184 227.27152832 47.8581543 228.50610352 C43.63528491 240.02783762 39.32977555 251.51807668 35 263 C28.4 263 21.8 263 15 263 C15.61267469 258.7112772 16.19570837 254.83943764 17.234375 250.69921875 C17.47607422 249.73161621 17.71777344 248.76401367 17.96679688 247.76708984 C18.22525391 246.7508252 18.48371094 245.73456055 18.75 244.6875 C19.1531543 243.08962646 19.1531543 243.08962646 19.56445312 241.45947266 C21.70154921 233.04623565 23.98771596 224.68230078 26.34814453 216.32958984 C27.57184274 211.95635825 28.75021638 207.5707276 29.9375 203.1875 C32.15292601 195.01999133 34.4387787 186.875447 36.82006836 178.75463867 C37.29446823 177.11857379 37.75645966 175.47887738 38.20825195 173.83642578 C38.78274793 171.77830235 39.39581088 169.73082077 40.03198242 167.69091797 C43.62782723 155.20897665 44.00909913 142.81074637 44.0625 129.875 C44.06847198 128.73427032 44.07444397 127.59354065 44.08059692 126.41824341 C44.06021678 109.50941745 43.08622215 97.74928692 31.92480469 84.46337891 C28.22015378 79.72213998 25.48166417 74.37102864 22.5625 69.125 C21.30055654 66.92496749 20.03493997 64.72703774 18.765625 62.53125 C18.14107422 61.44714844 17.51652344 60.36304688 16.87304688 59.24609375 C13.86456782 54.03223329 10.84166698 48.82686305 7.8125 43.625 C7.24466797 42.64708496 6.67683594 41.66916992 6.09179688 40.66162109 C3.25992487 35.80175809 0.38483956 30.97653346 -2.578125 26.1953125 C-3.14378174 25.27669434 -3.70943848 24.35807617 -4.29223633 23.41162109 C-5.36188853 21.68119398 -6.44193268 19.95713274 -7.53393555 18.24072266 C-8.00613525 17.47550293 -8.47833496 16.7102832 -8.96484375 15.921875 C-9.3837085 15.25768555 -9.80257324 14.59349609 -10.23413086 13.90917969 C-11.20574768 11.48710651 -10.97575994 10.39330339 -10 8 C-7.71484375 5.859375 -7.71484375 5.859375 -4.9375 3.75 C-4.01839844 3.04359375 -3.09929687 2.3371875 -2.15234375 1.609375 C-1.44207031 1.07828125 -0.73179687 0.5471875 0 0 Z " fill="#ffffff" transform="translate(208,160)"/>
<path d="M0 0 C1.6953125 1.484375 1.6953125 1.484375 3.125 3.75 C3.71410156 4.6678125 4.30320313 5.585625 4.91015625 6.53125 C5.61017717 7.68544091 6.30644402 8.84191276 7 10 C7.41491699 10.68707031 7.82983398 11.37414062 8.25732422 12.08203125 C10.21601756 15.33039056 12.16647245 18.58345189 14.10400391 21.84448242 C19.62960311 31.12888281 25.45301139 40.21564602 31.28173828 49.31152344 C34.48657988 54.3259758 37.65667673 59.36234752 40.83007812 64.39672852 C41.7352956 65.83211213 42.65781796 67.25672165 43.59692383 68.67016602 C45 71 45 71 46.23706055 73.95288086 C47.8482847 77.36691186 49.14034842 79.51159663 52 82 C58.0431303 83.9400702 64.67728962 83.35494814 70.9375 83.1875 C72.68813828 83.18053567 74.43880375 83.17853287 76.18945312 83.18164062 C80.4620892 83.17846421 84.72876959 83.10759806 89 83 C89.28343262 82.25266602 89.56686523 81.50533203 89.85888672 80.73535156 C90.84405688 78.37380973 91.88540648 76.38106044 93.2578125 74.234375 C93.7101123 73.52240967 94.16241211 72.81044434 94.62841797 72.0769043 C95.12229004 71.30902588 95.61616211 70.54114746 96.125 69.75 C96.64852051 68.92862549 97.17204102 68.10725098 97.71142578 67.26098633 C99.46996725 64.50454033 101.23478741 61.75217795 103 59 C104.28671053 56.98844254 105.57316223 54.97671951 106.859375 52.96484375 C109.55660855 48.74742335 112.2561766 44.53150844 114.95703125 40.31640625 C119.92653949 32.55729171 124.8726625 24.78335807 129.81640625 17.0078125 C130.33605957 16.20118164 130.85571289 15.39455078 131.39111328 14.56347656 C132.54836516 12.71960027 133.66158691 10.84782096 134.74560547 8.95996094 C135.3335791 7.9599707 135.92155273 6.95998047 136.52734375 5.9296875 C137.0493335 5.01171387 137.57132324 4.09374023 138.10913086 3.14794922 C140 1 140 1 142.94750977 0.01757812 C146.52032386 -0.00299635 147.58451236 0.55748127 150.3125 2.7890625 C151.07820312 3.40136719 151.84390625 4.01367188 152.6328125 4.64453125 C153.41398438 5.29808594 154.19515625 5.95164063 155 6.625 C155.78117188 7.25535156 156.56234375 7.88570312 157.3671875 8.53515625 C158.8927129 9.77047228 160.40748129 11.01921373 161.91015625 12.28222656 C163.93660499 13.99038396 163.93660499 13.99038396 165.93359375 15.36621094 C167.625 16.5859375 167.625 16.5859375 170 19 C169.71964057 23.26248808 168.54824482 26.29184328 166.3671875 29.921875 C165.81587158 30.85169189 165.26455566 31.78150879 164.6965332 32.73950195 C164.09542725 33.73296631 163.49432129 34.72643066 162.875 35.75 C161.59425315 37.90447318 160.31433376 40.05943843 159.03515625 42.21484375 C158.37016113 43.32972168 157.70516602 44.44459961 157.02001953 45.59326172 C153.73296434 51.13684017 150.52412608 56.72499772 147.3125 62.3125 C146.05363181 64.49753781 144.79452181 66.68243632 143.53515625 68.8671875 C142.93590332 69.90713867 142.33665039 70.94708984 141.71923828 72.01855469 C138.79749546 77.085343 135.86723015 82.1471853 132.93432617 87.20751953 C130.63649109 91.1721579 128.34254159 95.13896678 126.0546875 99.109375 C125.31943848 100.38373413 125.31943848 100.38373413 124.56933594 101.68383789 C123.64175584 103.29173748 122.71523217 104.90024723 121.79003906 106.50952148 C121.3669043 107.24243408 120.94376953 107.97534668 120.5078125 108.73046875 C120.14316895 109.36364014 119.77852539 109.99681152 119.40283203 110.64916992 C118 113 118 113 116.75498962 114.6917572 C112.89354421 120.17754651 112.24932368 124.48161415 112.30078125 131.10546875 C112.29362595 132.06536209 112.28647064 133.02525543 112.27909851 134.01423645 C112.27134325 136.04390543 112.27628736 138.07365826 112.29321289 140.10327148 C112.31217175 143.13500906 112.27329485 146.161979 112.22851562 149.19335938 C112.16945445 162.0664593 114.14686035 173.02196803 118.125 185.21728516 C119.71419633 190.27131968 121.03357822 195.39827655 122.38671875 200.51953125 C122.97756651 202.72888883 123.56921307 204.93803293 124.16162109 207.14697266 C124.46179138 208.26783264 124.76196167 209.38869263 125.07122803 210.54351807 C127.62878645 220.0616288 130.23226638 229.5673846 132.8269043 239.07543945 C133.82990594 242.75129017 134.83197861 246.42739333 135.83398438 250.10351562 C136.47911227 252.46876484 137.12429252 254.83399977 137.76953125 257.19921875 C138.06535599 258.2845842 138.36118073 259.36994965 138.66596985 260.48820496 C139.81360926 264.69187176 140.96183552 268.89324002 142.18310547 273.07617188 C142.93622467 275.77173539 143.29785545 278.02515406 143.3125 280.8125 C143.32925781 281.56144531 143.34601563 282.31039063 143.36328125 283.08203125 C143.24339844 283.71496094 143.12351562 284.34789062 143 285 C139.31354171 287.45763886 136.46050134 287.32305499 132.19140625 287.3359375 C131.42827621 287.3425943 130.66514618 287.3492511 129.87889099 287.35610962 C128.26588347 287.36622807 126.65283415 287.37092689 125.03979492 287.37060547 C122.57465534 287.37497844 120.11130713 287.41130219 117.64648438 287.44921875 C116.07813111 287.45508722 114.50976936 287.45905641 112.94140625 287.4609375 C112.20588028 287.47530853 111.47035431 287.48967957 110.71253967 287.50448608 C107.43080391 287.47525173 105.38446629 287.26824257 102.66357422 285.36987305 C100.67723996 282.54020667 99.58576181 279.88688535 98.44140625 276.62109375 C98.21594116 275.98907547 97.99047607 275.35705719 97.75817871 274.70588684 C97.27115596 273.33673139 96.78928665 271.96573412 96.31204224 270.59313965 C95.28853147 267.64958254 94.24035386 264.71499279 93.19395447 261.7795105 C92.64336892 260.23385784 92.09412494 258.68772669 91.54615784 257.1411438 C88.74207084 249.23393765 85.83203837 241.36720285 82.90280151 233.50564575 C82.08470941 231.30961737 81.26880915 229.11278582 80.45336914 226.91577148 C79.93911043 225.5323352 79.42470948 224.14895177 78.91015625 222.765625 C78.66507828 222.10603287 78.42000031 221.44644073 78.16749573 220.76686096 C76.97495099 217.56882359 75.76332739 214.38031428 74.51123047 211.20507812 C74.05248535 210.03912109 73.59374023 208.87316406 73.12109375 207.671875 C72.71173584 206.64674805 72.30237793 205.62162109 71.88061523 204.56542969 C71 202 71 202 71 199 C70.34 199 69.68 199 69 199 C68.88624023 199.84087158 68.77248047 200.68174316 68.65527344 201.5480957 C67.94966346 205.26516702 66.81955071 208.69350853 65.515625 212.23046875 C65.26362839 212.9265625 65.01163177 213.62265625 64.7519989 214.33984375 C63.92326105 216.624349 63.08688172 218.90596676 62.25 221.1875 C61.66841033 222.78350407 61.08711592 224.37961576 60.50610352 225.97583008 C58.98617807 230.14524262 57.45837774 234.31171932 55.92730713 238.47705078 C55.00959041 240.97390711 54.09332925 243.47129393 53.17724609 245.96875 C51.71511501 249.95222518 50.24831759 253.93395182 48.77746582 257.91421509 C48.22309276 259.41457127 47.66944788 260.91519674 47.11657715 262.41610718 C39.24902989 283.75097011 39.24902989 283.75097011 36 287 C33.3104026 287.21202418 30.72636277 287.30397614 28.03515625 287.30078125 C27.24604355 287.30506638 26.45693085 287.3093515 25.64390564 287.31376648 C23.97363241 287.31951363 22.30333414 287.32000721 20.63305664 287.31567383 C18.07590028 287.31251655 15.5199036 287.33595751 12.96289062 287.36132812 C11.3411473 287.36360134 9.71940085 287.36430451 8.09765625 287.36328125 C7.33195816 287.372491 6.56626007 287.38170074 5.77735901 287.39118958 C0.54460201 287.34554423 0.54460201 287.34554423 -2.01318359 285.72265625 C-4.61035508 281.1888507 -1.80596071 273.97840097 -0.58203125 269.20703125 C0.00098473 267.07364318 0.59115814 264.94220155 1.1875 262.8125 C1.50211182 261.6675708 1.81672363 260.5226416 2.14086914 259.34301758 C2.78457385 257.00169789 3.43096118 254.66111402 4.08007812 252.32128906 C5.14303274 248.48359412 6.1872025 244.64101933 7.22924805 240.79760742 C9.41395353 232.74635395 11.6304523 224.70398007 13.86352539 216.66601562 C14.5440503 214.19950295 15.21627308 211.73068619 15.88061523 209.25976562 C17.52569685 203.16400625 19.25522429 197.14614205 21.2890625 191.16796875 C28.63142255 168.65871801 33.74285089 135.96276613 24.89453125 113.2734375 C22.7022333 108.98791045 19.92536485 105.2784618 16.91259766 101.53808594 C13.43115821 96.91809048 10.68450285 91.82877441 7.82351685 86.81082153 C6.39536394 84.31864863 4.93847337 81.84388423 3.48088074 79.36885071 C-1.887424 70.2513935 -7.1429387 61.06979601 -12.36621094 51.86865234 C-15.34931765 46.61853481 -18.34946603 41.38381827 -21.4453125 36.19921875 C-21.96561035 35.32281738 -22.4859082 34.44641602 -23.02197266 33.54345703 C-23.97337873 31.9464652 -24.93334553 30.35452645 -25.90380859 28.76904297 C-26.31711426 28.07311035 -26.73041992 27.37717773 -27.15625 26.66015625 C-27.51525391 26.06855713 -27.87425781 25.47695801 -28.24414062 24.86743164 C-29.25498551 22.37003096 -29.37655459 20.67025748 -29 18 C-27.42700195 16.21069336 -27.42700195 16.21069336 -25.23828125 14.58984375 C-24.44873047 13.99236328 -23.65917969 13.39488281 -22.84570312 12.77929688 C-22.00974609 12.17150391 -21.17378906 11.56371094 -20.3125 10.9375 C-19.49587891 10.32583984 -18.67925781 9.71417969 -17.83789062 9.08398438 C-16.25784401 7.90054865 -14.67096126 6.72617297 -13.07666016 5.56201172 C-10.83723339 3.92485642 -10.83723339 3.92485642 -8.29296875 1.56640625 C-5.29315322 -0.48287148 -3.55810191 -0.59783826 0 0 Z M-10.5625 17.5 C-11.57441406 18.3353125 -12.58632812 19.170625 -13.62890625 20.03125 C-14.80259766 21.00578125 -14.80259766 21.00578125 -16 22 C-15.31865144 25.66503537 -13.74790176 28.45615143 -11.89453125 31.671875 C-11.24798584 32.79867676 -10.60144043 33.92547852 -9.93530273 35.08642578 C-9.22784455 36.30769988 -8.5202399 37.52888914 -7.8125 38.75 C-7.08306135 40.01656088 -6.35398052 41.2833279 -5.62524414 42.55029297 C-0.52997551 51.39812258 4.60723467 60.22186277 9.76489258 69.03344727 C12.83753593 74.28365769 15.89346595 79.54278208 18.92578125 84.81640625 C19.25620926 85.39094543 19.58663727 85.96548462 19.92707825 86.55743408 C21.51263265 89.31498334 23.09603994 92.07372811 24.67602539 94.83447266 C25.25473389 95.84171387 25.83344238 96.84895508 26.4296875 97.88671875 C27.00146729 98.90564209 27.57324707 99.92456543 28.16235352 100.97436523 C29.94048088 104.04141482 29.94048088 104.04141482 32.19506836 106.77758789 C39.65682878 116.70258235 39.12394758 126.65998144 38.87817383 138.67163086 C38.81308945 142.03206555 38.81653489 145.38710858 38.83007812 148.74804688 C38.7705102 162.51026451 37.02617192 174.85723588 33 188 C32.5741533 189.45182577 32.15018634 190.90420446 31.72827148 192.35717773 C30.95247763 195.00661932 30.16939605 197.65302564 29.375 200.296875 C25.66124052 212.84719746 22.3988155 225.54107616 19.13671875 238.21484375 C18.8310498 239.40223145 18.52538086 240.58961914 18.21044922 241.81298828 C17.63207162 244.06705694 17.05664406 246.32188565 16.48486328 248.57763672 C14.79674086 255.17221515 12.89273562 261.64898236 10.75854492 268.11401367 C9.78816389 271.30862423 9.78816389 271.30862423 10 276 C16.6 276 23.2 276 30 276 C30.67804688 274.14761719 31.35609375 272.29523438 32.0546875 270.38671875 C48.97783878 224.17667993 48.97783878 224.17667993 56.22973633 205.32861328 C58.65937052 198.98321554 60.94250768 192.59354486 63.09863281 186.14990234 C64.78577133 181.21422867 64.78577133 181.21422867 67 179 C70.125 178.875 70.125 178.875 73 179 C76.00326298 185.58806503 78.74350264 192.25563789 81.375 199 C81.7359375 199.91394531 82.096875 200.82789063 82.46875 201.76953125 C84.69657164 207.46371872 86.79065227 213.19392429 88.80859375 218.96484375 C92.27996915 228.88911944 95.98008647 238.7244731 99.6875 248.5625 C100.35757912 250.34434191 101.02750162 252.12624274 101.69726562 253.90820312 C103.16679151 257.81727881 104.63776403 261.72580624 106.1101532 265.63380432 C107.40926063 269.08826681 108.70412181 272.54432482 110 276 C116.6 276 123.2 276 130 276 C129.30991849 268.89120013 129.30991849 268.89120013 127.765625 262.23046875 C127.52384521 261.41489502 127.28206543 260.59932129 127.03295898 259.7590332 C126.77458252 258.91042725 126.51620605 258.06182129 126.25 257.1875 C124.15473537 250.09559288 122.19213032 242.99641967 120.4375 235.8125 C118.34825494 227.29365929 116.04873739 218.84975049 113.67236328 210.40722656 C112.19250288 205.10896092 110.75916185 199.79782832 109.31860352 194.48876953 C109.08971436 193.64685059 108.8608252 192.80493164 108.625 191.9375 C108.38257568 191.02194336 108.14015137 190.10638672 107.89038086 189.16308594 C107.2245632 186.79776276 106.50875612 184.48722011 105.73657227 182.15722656 C101.64818456 169.40231971 100.92048975 157.08997252 100.9375 143.75 C100.93420685 142.11842453 100.93420685 142.11842453 100.93084717 140.45388794 C100.98945389 124.30565238 102.06311548 112.47227399 112.22070312 99.39648438 C115.53721829 94.92956438 118.13414757 90.02007591 120.875 85.1875 C122.0521303 83.17818721 123.2318326 81.17037905 124.4140625 79.1640625 C128.11086454 72.84372353 131.68870031 66.45991929 135.25 60.0625 C140.02769856 51.48134485 144.89336167 42.964629 149.9140625 34.5234375 C150.25856445 33.94045898 150.60306641 33.35748047 150.95800781 32.75683594 C151.68455666 31.5318487 152.41890632 30.31146906 153.15917969 29.09472656 C155.44643516 25.31756486 155.44643516 25.31756486 156 21 C153.54785676 18.85068429 153.54785676 18.85068429 150.5 16.8125 C149.4790625 16.09707031 148.458125 15.38164062 147.40625 14.64453125 C146.21515625 13.83048828 146.21515625 13.83048828 145 13 C142.42092465 15.36596457 140.68275076 17.90224062 138.84765625 20.875 C138.24236084 21.85025635 137.63706543 22.8255127 137.01342773 23.83032227 C136.04771851 25.39931274 136.04771851 25.39931274 135.0625 27 C133.70096269 29.19688849 132.33897861 31.39350014 130.9765625 33.58984375 C129.96384277 35.22542236 129.96384277 35.22542236 128.93066406 36.89404297 C126.29451532 41.13494892 123.61729792 45.34910481 120.9375 49.5625 C115.8305277 57.6049829 110.87650236 65.73684323 105.98217773 73.91040039 C96.70769161 89.29230839 96.70769161 89.29230839 93 93 C91.49581261 93.09311889 89.98728644 93.11746028 88.48022461 93.11352539 C87.03884377 93.11341209 87.03884377 93.11341209 85.56834412 93.11329651 C84.523564 93.10813522 83.47878387 93.10297394 82.40234375 93.09765625 C81.33834854 93.0962413 80.27435333 93.09482635 79.17811584 93.09336853 C75.76454917 93.08775064 72.351047 93.07519511 68.9375 93.0625 C66.62955824 93.05748731 64.32161545 93.052924 62.01367188 93.04882812 C56.34242574 93.0377754 50.67121747 93.02101987 45 93 C44.73300293 92.2795752 44.46600586 91.55915039 44.19091797 90.81689453 C42.99086401 87.97839051 41.588607 85.53421883 39.9453125 82.9296875 C39.33695557 81.96111816 38.72859863 80.99254883 38.10180664 79.99462891 C37.44946045 78.96515137 36.79711426 77.93567383 36.125 76.875 C35.44880615 75.80040527 34.7726123 74.72581055 34.07592773 73.61865234 C31.02693014 68.7766128 27.96446084 63.94312385 24.90234375 59.109375 C23.95568638 57.61461043 23.00907094 56.1198193 22.0625 54.625 C21.59602051 53.88918701 21.12954102 53.15337402 20.64892578 52.39526367 C15.49753566 44.24709334 10.46208763 36.02731153 5.42993164 27.80517578 C0.88379169 20.29249972 0.88379169 20.29249972 -4 13 C-6.25829788 13 -8.96809992 16.18049649 -10.5625 17.5 Z " fill="#E92718" transform="translate(213,147)"/>
<path d="M0 0 C7.66891135 2.7631723 14.4634412 10.18536877 18.40234375 17.16796875 C20.2910995 24.91186731 18.52368671 30.76181269 15.02734375 37.73046875 C12.53032765 41.51626735 10.11348521 43.73978445 6.02734375 45.73046875 C5.03734375 45.73046875 4.04734375 45.73046875 3.02734375 45.73046875 C3.02734375 49.03046875 3.02734375 52.33046875 3.02734375 55.73046875 C4.29835938 55.24449219 5.569375 54.75851563 6.87890625 54.2578125 C12.1112399 52.518825 16.92305588 52.24805655 22.40234375 52.29296875 C23.29050781 52.27298828 24.17867188 52.25300781 25.09375 52.23242188 C31.44954931 52.23722959 31.44954931 52.23722959 34.109375 54.5078125 C37.19894729 61.98852158 34.71487642 72.66787074 32.25 80.0625 C29.99713567 85.11935855 26.85620421 88.96249695 22.02734375 91.73046875 C15.51275536 94.07607463 9.99070874 94.73046875 3.02734375 94.73046875 C3.35734375 101.99046875 3.68734375 109.25046875 4.02734375 116.73046875 C5.92484375 115.76109375 7.82234375 114.79171875 9.77734375 113.79296875 C16.25982862 110.48126453 20.82861496 109.54950451 28.08984375 109.54296875 C28.80978516 109.53072266 29.52972656 109.51847656 30.27148438 109.50585938 C34.06996845 109.49527864 35.79100893 109.5729122 39.02734375 111.73046875 C39.36788854 114.27381679 39.50227302 116.49866249 39.46484375 119.04296875 C39.45654541 119.758479 39.44824707 120.47398926 39.43969727 121.21118164 C39.13382245 131.01550355 36.67078219 140.19858248 30.2265625 147.7890625 C22.18603056 154.88700987 13.50426273 156.73046875 3.02734375 156.73046875 C3.02734375 162.67046875 3.02734375 168.61046875 3.02734375 174.73046875 C4.82171875 173.55484375 4.82171875 173.55484375 6.65234375 172.35546875 C13.38842319 167.94217532 19.42636007 167.41259281 27.27734375 167.48046875 C28.18742187 167.47273437 29.0975 167.465 30.03515625 167.45703125 C30.90398437 167.45960938 31.7728125 167.4621875 32.66796875 167.46484375 C33.45719727 167.46709961 34.24642578 167.46935547 35.05957031 167.47167969 C37.02734375 167.73046875 37.02734375 167.73046875 39.02734375 169.73046875 C39.28613281 171.57470703 39.28613281 171.57470703 39.29296875 173.80078125 C39.29683594 175.0228125 39.29683594 175.0228125 39.30078125 176.26953125 C39.29304688 177.12289062 39.2853125 177.97625 39.27734375 178.85546875 C39.28894531 180.10070312 39.28894531 180.10070312 39.30078125 181.37109375 C39.26437818 192.98367158 35.87490317 203.43633786 27.8828125 212.0078125 C20.56568058 218.80119182 12.80834123 219.73046875 3.02734375 219.73046875 C3.02734375 228.31046875 3.02734375 236.89046875 3.02734375 245.73046875 C-0.60265625 245.73046875 -4.23265625 245.73046875 -7.97265625 245.73046875 C-7.97265625 237.15046875 -7.97265625 228.57046875 -7.97265625 219.73046875 C-11.27265625 219.73046875 -14.57265625 219.73046875 -17.97265625 219.73046875 C-28.33958972 217.48540036 -37.33277582 211.81771884 -43.46484375 203.17578125 C-49.58505599 193.2502557 -50.74084081 181.22366838 -48.97265625 169.73046875 C-46.3100201 167.0678326 -44.22695351 167.41689514 -40.59887695 167.3503418 C-27.59732366 167.37634243 -20.19051802 169.71930514 -8.97265625 176.73046875 C-8.64265625 170.13046875 -8.31265625 163.53046875 -7.97265625 156.73046875 C-11.27265625 156.73046875 -14.57265625 156.73046875 -17.97265625 156.73046875 C-25.54286683 155.19545124 -32.06932015 151.74722615 -36.97265625 145.73046875 C-42.07712111 137.32704843 -44.151418 130.38291882 -44.22265625 120.60546875 C-44.25359375 119.53232422 -44.25359375 119.53232422 -44.28515625 118.4375 C-44.30628666 115.61130719 -44.27275993 113.30547657 -42.94921875 110.76953125 C-39.78794289 109.10767477 -36.58564836 109.20176887 -33.09765625 109.23046875 C-32.34331299 109.23328857 -31.58896973 109.2361084 -30.81176758 109.23901367 C-21.78193209 109.49553767 -14.23211124 112.28587751 -6.97265625 117.73046875 C-6.97265625 110.14046875 -6.97265625 102.55046875 -6.97265625 94.73046875 C-9.59203125 94.52421875 -12.21140625 94.31796875 -14.91015625 94.10546875 C-22.04386849 93.35754678 -27.87048387 92.17915869 -32.97265625 86.73046875 C-36.57638632 81.45176554 -38.09705438 76.1407079 -38.10546875 69.78125 C-38.10740234 68.38616211 -38.10740234 68.38616211 -38.109375 66.96289062 C-38.10550781 65.99931641 -38.10164063 65.03574219 -38.09765625 64.04296875 C-38.10152344 63.06779297 -38.10539062 62.09261719 -38.109375 61.08789062 C-38.10808594 60.16169922 -38.10679687 59.23550781 -38.10546875 58.28125 C-38.10434082 57.43216064 -38.10321289 56.58307129 -38.10205078 55.70825195 C-37.97265625 53.73046875 -37.97265625 53.73046875 -36.97265625 52.73046875 C-33.64801972 52.44828509 -30.3078188 52.49852105 -26.97265625 52.48046875 C-26.05097656 52.45984375 -25.12929688 52.43921875 -24.1796875 52.41796875 C-17.90020378 52.38254148 -12.78599635 53.35130549 -6.97265625 55.73046875 C-6.89275886 52.51439289 -6.93132657 49.80896282 -7.97265625 46.73046875 C-10.0935165 44.83715019 -12.2842418 43.5434942 -14.74609375 42.12890625 C-19.30314016 39.26676131 -21.2398713 34.63881775 -22.97265625 29.73046875 C-23.88226201 23.95797066 -23.67883226 19.06762542 -20.53515625 14.04296875 C-15.9632288 7.99060765 -8.22017627 -1.4771987 0 0 Z " fill="#E92616" transform="translate(399.97265625,188.26953125)"/>
<path d="M0 0 C5.52050009 3.28075434 10.38219472 7.97751925 12.67578125 14.09375 C12.71703125 15.063125 12.75828125 16.0325 12.80078125 17.03125 C13.98562955 21.17821904 15.97549921 21.78283961 19.60546875 23.8125 C24.12167932 26.60743786 27.38510312 30.9310375 28.67578125 36.09375 C29.65912199 43.64155462 28.24126962 48.99395816 23.67578125 55.09375 C19.18890098 59.36175806 15.83057463 61.21522619 9.67578125 61.09375 C9.61970703 62.32351563 9.61970703 62.32351563 9.5625 63.578125 C9.49675781 64.65578125 9.43101562 65.7334375 9.36328125 66.84375 C9.27626953 68.44476563 9.27626953 68.44476563 9.1875 70.078125 C8.61718148 73.43908608 8.07414861 74.70645397 5.67578125 77.09375 C2.88842773 77.59545898 2.88842773 77.59545898 -0.453125 77.58984375 C-1.65259766 77.59048828 -2.85207031 77.59113281 -4.08789062 77.59179688 C-5.34150391 77.57181641 -6.59511719 77.55183594 -7.88671875 77.53125 C-9.14419922 77.53833984 -10.40167969 77.54542969 -11.69726562 77.55273438 C-18.62352579 77.50429899 -18.62352579 77.50429899 -21.32421875 77.09375 C-23.51163889 73.8126198 -23.86864681 71.76290644 -24.44921875 67.90625 C-24.61679688 66.81957031 -24.784375 65.73289062 -24.95703125 64.61328125 C-25.07820313 63.78183594 -25.199375 62.95039063 -25.32421875 62.09375 C-26.21173828 61.85591797 -26.21173828 61.85591797 -27.1171875 61.61328125 C-34.17469691 59.52941632 -38.21300222 56.2605748 -42.32421875 50.09375 C-44.23569679 44.35931587 -44.52593593 37.35185392 -42.41796875 31.63671875 C-39.79387636 27.23799977 -36.51286061 24.00758782 -32.32421875 21.09375 C-31.33421875 21.09375 -30.34421875 21.09375 -29.32421875 21.09375 C-29.32164062 20.536875 -29.3190625 19.98 -29.31640625 19.40625 C-28.98132108 12.79390265 -26.9372576 8.81357215 -22.32421875 4.09375 C-16.05516193 -1.12041745 -7.77572769 -3.03188038 0 0 Z " fill="#E92617" transform="translate(170.32421875,199.90625)"/>
<path d="M0 0 C1.11375 0.598125 2.2275 1.19625 3.375 1.8125 C4.00148437 2.14894531 4.62796875 2.48539062 5.2734375 2.83203125 C7 4 7 4 9 7 C8.66226563 7.51949219 8.32453125 8.03898437 7.9765625 8.57421875 C5.60108299 12.28848007 3.44237185 15.80400915 2 20 C3.2375 20.061875 3.2375 20.061875 4.5 20.125 C11.77356957 21.94339239 17.91057836 27.81158318 22 34 C24.78378696 39.39483297 25.55056287 43.77247664 25.5 49.8125 C25.49427979 50.60567627 25.48855957 51.39885254 25.48266602 52.21606445 C25.22390142 60.72915831 22.48057781 66.49971192 16.8125 72.8125 C9.3751461 79.50453272 2.27383524 81.78248004 -7.59667969 81.65991211 C-16.51559273 81.18585981 -23.74716501 77.71044297 -30 71.3125 C-36.49306978 62.93024855 -38.26648842 53.4032977 -37 43 C-34.73288728 33.86786616 -29.94645444 27.68735242 -22.125 22.625 C-17.65338029 20.0775318 -14.1167633 19.18950975 -9 19 C-8.89558594 18.30261719 -8.79117188 17.60523438 -8.68359375 16.88671875 C-7.89559143 13.55909753 -6.61049106 10.85927947 -5.0625 7.8125 C-4.53785156 6.76707031 -4.01320312 5.72164063 -3.47265625 4.64453125 C-2 2 -2 2 0 0 Z " fill="#E92617" transform="translate(190,285)"/>
<path d="M0 0 C7.11878779 5.75255579 11.72314756 12.99515108 12.94921875 22.12890625 C13.27367473 32.50103143 11.34097664 41.14264749 4.1484375 48.84375 C-3.79081563 55.9817941 -12.11694931 57.98448631 -22.66015625 57.80859375 C-31.86505129 56.78377595 -39.16166814 52.06761145 -44.9296875 44.9296875 C-49.90726735 37.10435764 -52.00153892 28.22661873 -50.08203125 19.13671875 C-47.52615803 10.27533796 -42.84296693 3.37735443 -34.91015625 -1.40625 C-23.16828433 -7.48164641 -11.36335235 -7.22806511 0 0 Z " fill="#E92617" transform="translate(301.5546875,162.625)"/>
<path d="M0 0 C3.70073034 1.01106187 5.22482681 2.31312887 7.93110657 5.00566101 C8.82835953 5.88715317 9.72561249 6.76864532 10.65005493 7.67684937 C11.61050819 8.64625269 12.57030612 9.61630568 13.52949524 10.58695984 C14.52670627 11.58079999 15.52465831 12.57389714 16.52331543 13.56628418 C18.61002104 15.64563139 20.68744913 17.73371887 22.75874329 19.82841492 C25.40945629 22.5076149 28.08198805 25.16373716 30.76189137 27.81370068 C32.82564158 29.85935008 34.87729376 31.91680092 36.92552757 33.97797585 C37.90622602 34.96200061 38.89062726 35.94234984 39.87880898 36.91885948 C41.25992753 38.28722679 42.62327106 39.67346402 43.98579407 41.06034851 C44.76489639 41.8434288 45.54399872 42.62650909 46.34671021 43.43331909 C48.47407821 46.31600757 48.95497791 48.2992229 49.13496399 51.85649109 C45.36660858 58.35498155 37.9628639 61.36133023 31.13496399 63.85649109 C20.84635078 66.37148543 10.90786825 64.21452745 1.75996399 59.10649109 C-6.84987173 53.48599033 -11.63911943 45.53424084 -14.86503601 35.85649109 C-15.98781726 23.64624496 -15.1748483 14.06477828 -7.86503601 3.85649109 C-3.94685127 -0.19769676 -3.94685127 -0.19769676 0 0 Z " fill="#E92617" transform="translate(145.8650360107422,370.1435089111328)"/>
<path d="M0 0 C2.9375 2.4375 2.9375 2.4375 5 5 C5.495 5.495 5.495 5.495 6 6 C6.03171185 9.07604912 5.93146143 12.14015453 5.83984375 15.21484375 C5.69828666 18.14185102 5.69828666 18.14185102 8 20 C9.446822 20.32679184 10.90839253 20.59080352 12.375 20.8125 C15.69794283 21.5081241 16.90138708 21.91581824 19.5625 24.1875 C21.39730641 27.77733862 21.49851246 30.01190033 21 34 C19.7627647 36.78377943 18.75786753 38.43861664 16.3125 40.25 C14.09988045 40.96760634 12.17879314 41.25004053 9.875 41.5 C5.99293052 41.59986718 5.99293052 41.59986718 4 44 C3.56954664 46.00596892 3.22561097 48.03119661 2.9375 50.0625 C2.09722222 55.90277778 2.09722222 55.90277778 1 57 C-0.85287502 57.07226502 -2.70833878 57.0838122 -4.5625 57.0625 C-5.57441406 57.05347656 -6.58632812 57.04445313 -7.62890625 57.03515625 C-8.80259766 57.01775391 -8.80259766 57.01775391 -10 57 C-10.20496094 56.08476562 -10.40992188 55.16953125 -10.62109375 54.2265625 C-10.89050781 53.03804688 -11.15992188 51.84953125 -11.4375 50.625 C-11.70433594 49.44164062 -11.97117188 48.25828125 -12.24609375 47.0390625 C-12.85634695 44.10505419 -12.85634695 44.10505419 -14 42 C-16.18687453 41.49692556 -16.18687453 41.49692556 -18.75 41.1875 C-22.28663977 40.51867987 -24.05344672 39.96472516 -27.125 37.9375 C-29.7052219 33.89515236 -30.02510152 30.66802426 -29 26 C-26.31927909 21.93568121 -23.7791274 20.74487792 -19.1875 19.6875 C-17.79482492 19.43986283 -16.39968739 19.20431167 -15 19 C-14.99742187 18.04738281 -14.99484375 17.09476563 -14.9921875 16.11328125 C-14.68820501 6.25411575 -14.68820501 6.25411575 -12.87890625 2.95703125 C-8.90915384 -0.71149333 -5.02185459 -0.79711978 0 0 Z " fill="#ffffff" transform="translate(167,210)"/>
<path d="M0 0 C5.21354474 5.00218482 8.11478366 8.80955884 8.3125 16.1875 C8.23859236 22.40395343 6.84650302 26.94293374 2.57421875 31.53125 C-2.81906869 36.32528328 -7.47794241 37.41703629 -14.50390625 37.25 C-20.80716813 36.61868739 -25.05137615 33.80238035 -29 29 C-32.53555441 23.61578969 -33.712482 19.41233796 -33 13 C-30.94052647 6.71318607 -27.87145082 2.03102619 -22.4375 -1.8125 C-14.72014878 -5.57223521 -6.94337135 -4.99314155 0 0 Z " fill="#ffffff" transform="translate(295,172)"/>
<path d="M0 0 C0 3.3 0 6.6 0 10 C3.3 9.67 6.6 9.34 10 9 C10 6.36 10 3.72 10 1 C15.87959371 1.78872598 19.00465341 4.81439881 23 9 C26.07420594 13.51523998 26.71685105 17.63876188 26 23 C24.61301224 29.53508648 21.18270542 33.87612687 16 38 C10.70047584 41.42572278 4.0248979 40.77501483 -2 40 C-7.10802859 37.66467806 -10.8774786 33.62133167 -14 29 C-16.05764538 22.82706385 -16.13095462 15.48810016 -13.4375 9.5625 C-4.34146341 0 -4.34146341 0 0 0 Z " fill="#ffffff" transform="translate(179,315)"/>
<path d="M0 0 C8.65053536 -0.56416535 16.4661787 1.69104283 23.2421875 7.19140625 C28.10578715 12.19550989 30.79403269 18.27922923 31.09765625 25.23828125 C31.06510417 27.15885417 31.03255208 29.07942708 31 31 C22.27427288 31.56295014 14.92628604 29.93883837 8.1875 24.0625 C3.14604285 18.53123304 -0.28186485 10.20842816 -0.3125 2.6875 C-0.209375 1.800625 -0.10625 0.91375 0 0 Z " fill="#ffffff" transform="translate(361,366)"/>
<path d="M0 0 C1.8871875 0.0309375 1.8871875 0.0309375 3.8125 0.0625 C4.53268131 9.28482181 2.80172527 17.6140519 -2.9375 25.0625 C-6.73623033 29.04257675 -11.01779479 30.82450166 -16.4765625 31.234375 C-18.3810227 31.24783408 -20.28571925 31.16438111 -22.1875 31.0625 C-22.62865754 21.94524415 -21.33153281 13.20286246 -15.1875 6.0625 C-10.41622778 2.50819195 -6.07600227 -0.09960659 0 0 Z " fill="#ffffff" transform="translate(425.1875,365.9375)"/>
<path d="M0 0 C-0.3465565 8.45597851 -1.74527972 14.59389738 -7.6875 20.8125 C-13.39897641 24.5842297 -19.09150925 26.53142237 -26 26 C-26.42155003 19.39571626 -25.50764885 13.43640768 -21.5234375 7.9765625 C-15.30632216 1.24845138 -8.94775055 -0.47934378 0 0 Z " fill="#ffffff" transform="translate(429,309)"/>
<path d="M0 0 C8.12422178 0.03037092 13.94835975 1.36354505 20 7 C24.74765687 13.10225149 25.12354258 18.58744528 25 26 C17.48967288 25.56956623 12.13350688 24.76914561 6.3125 19.625 C0.59735731 13.13754073 -0.13900024 8.34001424 0 0 Z " fill="#ffffff" transform="translate(367,309)"/>
<path d="M0 0 C4.65705802 2.32852901 8.43383558 5.43893745 11 10 C11.51644191 14.0621625 10.36088233 17.20949585 8.6875 20.875 C6.81130789 23.23761229 5.9050709 24.19303586 3 25 C-1.53949254 25 -3.4543844 24.4643537 -6.9375 21.5 C-9.30236496 18.2128377 -9.77887385 15.25291614 -9.5625 11.25 C-8.2642364 6.0569456 -4.29164763 2.86109842 0 0 Z " fill="#ffffff" transform="translate(397,200)"/>
<path d="M0 0 C1.60294922 0.04060547 1.60294922 0.04060547 3.23828125 0.08203125 C4.04652344 0.11683594 4.85476563 0.15164062 5.6875 0.1875 C6.16014799 6.68640984 5.28095636 11.64524129 1.6875 17.1875 C-3.32222122 21.21971464 -9.1852582 20.48186927 -15.3125 20.1875 C-14.68379528 8.00363611 -14.68379528 8.00363611 -11.3125 3.1875 C-7.45130148 0.32054308 -4.76383141 -0.15704939 0 0 Z " fill="#ffffff" transform="translate(418.3125,251.8125)"/>
<path d="M0 0 C6.04358985 -0.32248404 10.80745507 -0.54612824 16 3 C19.62967985 6.8800026 20.1386486 10.57189551 20.0625 15.75 C20.05347656 16.54921875 20.04445313 17.3484375 20.03515625 18.171875 C20.02355469 18.77515625 20.01195312 19.3784375 20 20 C9.02022803 20.58587716 9.02022803 20.58587716 4 17 C0.34509471 13.15273127 -0.23678616 10.26518289 -0.25 5.125 C-0.18619084 3.41582604 -0.10933663 1.70686635 0 0 Z " fill="#ffffff" transform="translate(372,252)"/>
<path d="M0 0 C-0.28484846 1.73030291 -0.57819938 3.45920714 -0.875 5.1875 C-1.03742188 6.15042969 -1.19984375 7.11335938 -1.3671875 8.10546875 C-1.98039517 10.91032604 -2.85666343 13.37224747 -4 16 C-10.20742343 13.78306306 -12.99385436 9.61786791 -16 4 C-16 3.34 -16 2.68 -16 2 C-13.89627599 1.66388432 -11.79200343 1.33120054 -9.6875 1 C-8.51574219 0.814375 -7.34398437 0.62875 -6.13671875 0.4375 C-3 0 -3 0 0 0 Z " fill="#ffffff" transform="translate(159,404)"/>
<path d="M0 0 C3.39859703 1.46966358 5.64963709 3.38037514 8.25 6 C8.95640625 6.70125 9.6628125 7.4025 10.390625 8.125 C12 10 12 10 12 12 C6.63999211 14.25684543 2.8022175 15.36263859 -3 15 C-2.44854729 9.76119922 -1.57077907 5.02649303 0 0 Z " fill="#ffffff" transform="translate(169,408)"/>
<path d="M0 0 C3.21524305 1.40844718 5.32183868 3.10344786 7.75 5.625 C8.67039063 6.57246094 8.67039063 6.57246094 9.609375 7.5390625 C10.29773438 8.26222656 10.29773438 8.26222656 11 9 C7.88089144 10.79275866 5.32317572 11.34290718 1.75 11.625 C0.85796875 11.69976562 -0.0340625 11.77453125 -0.953125 11.8515625 C-1.62859375 11.90054687 -2.3040625 11.94953125 -3 12 C-3.2954439 6.97745369 -2.98514628 4.10457614 0 0 Z " fill="#ffffff" transform="translate(145,384)"/>
</svg>
